<?xml version="1.0" encoding="utf-8"?>
<!-- Generator: Adobe Illustrator 23.1.1, SVG Export Plug-In . SVG Version: 6.00 Build 0)  -->
<svg version="1.1" id="logo" xmlns="http://www.w3.org/2000/svg" xmlns:xlink="http://www.w3.org/1999/xlink" x="0px" y="0px"
	 viewBox="0 0 186.3 34" style="enable-background:new 0 0 186.3 34;" xml:space="preserve">
<style type="text/css">
	.st0{fill-rule:evenodd;clip-rule:evenodd;fill:#33FF00;}
	.st1{fill:#FFFFFF;}
</style>
<path class="st0" d="M25,21.6C24.9,28.5,19.3,34,12.4,34C5.5,33.9-0.1,28.3,0,21.4S5.7,8.9,12.6,9S25.1,14.7,25,21.6z M14.4,15.7
	c0,1.1-0.9,2-2,2s-2-0.9-2-2c0-0.8,0.5-1.6,1.3-1.8v-1h-1.2v-1.3h1.2v-1.2H13v1.2h1.2v1.3H13v1C13.9,14.2,14.4,14.9,14.4,15.7z
	 M13.3,15.7c0-0.4-0.4-0.8-0.8-0.8s-0.8,0.4-0.8,0.8c0,0.4,0.4,0.8,0.8,0.8S13.3,16.1,13.3,15.7z M18.5,28.9h-12v1.4h11.9v-1.4H18.5
	z M18.4,27.8H6.5c-1.5-1.3-3.7-3.9-3.6-6.3C3,20.2,3.8,19.1,5,18.8c0.9-0.2,1.7-0.2,2.8,0.4c0.3-0.4,0.7-0.7,1.3-0.9
	c1.1-0.4,2.6-0.1,3.3,0.9c0.9-1.1,2.2-1.3,3.3-1c0.6,0.2,1.1,0.5,1.4,1c1.2-0.7,2-0.7,2.9-0.4c1.2,0.4,2,1.4,2,2.8
	C22.2,23.9,19.9,26.5,18.4,27.8z M10.5,26.4C9.1,25,7.3,23,7.3,21.1v-0.4C6.4,20,6,20,5.4,20.2c-0.5,0.1-1,0.5-1,1.4
	c0,1.2,0.7,2.8,2.7,4.8H10.5z M16.2,21.1c0-0.9-0.4-1.7-1.4-1.7s-1.7,0.8-1.7,1.6c0,0.6,0.3,1.2,1,1.4C13.8,23,13,24,12.5,24.3h-0.1
	c-0.5-0.4-1.2-1.3-1.6-1.8c0.7-0.2,1-0.8,1-1.4c0-0.2-0.1-0.4-0.1-0.6c0,0,0-0.1-0.1-0.1v-0.1c0,0,0-0.1-0.1-0.1
	c-0.3-0.3-0.7-0.5-1.1-0.6c-0.2,0-0.5,0-0.7,0.1c-0.4,0.1-0.7,0.4-0.9,1.1v0.6c0.1,1.2,1.4,2.9,3.7,5C15,24.1,16.2,22.4,16.2,21.1z
	 M20.6,21.6c0-0.9-0.5-1.3-1-1.4c-0.6-0.2-1.1-0.1-2,0.5v0.4c0,1.9-1.8,3.9-3.2,5.3h3.5C19.9,24.4,20.7,22.8,20.6,21.6z"/>
<g>
	<path class="st1" d="M41,30.3c0.9,0,1.5-0.5,1.5-1.3v-1c0-0.8-0.4-1.2-1.6-1.7l-3.5-1.6c-2.3-1-3.6-1.7-3.6-3.8v-2.1
		c0-1.9,1.6-3.4,3.6-3.4h7.2c0.3,0,0.5,0.2,0.5,0.4v2c0,0.2-0.2,0.4-0.5,0.4h-5.7c-0.9,0-1.5,0.5-1.5,1.3v0.8c0,0.9,0.7,1.1,1.7,1.5
		l3.3,1.6c2.6,1.2,3.8,2,3.8,4.2v2.2c0,1.9-1.8,3.4-3.8,3.4H34c-0.3,0-0.5-0.2-0.5-0.4v-2.1c0-0.2,0.2-0.4,0.5-0.4H41z M53.7,30.2
		c0,0.3,0.2,0.4,0.4,0.4h1.7c0.3,0,0.4,0.2,0.4,0.4v1.7c0,0.3-0.2,0.4-0.4,0.4h-7.2c-0.3,0-0.4-0.2-0.4-0.4V31
		c0-0.3,0.2-0.4,0.4-0.4h1.3c0.3,0,0.4-0.2,0.4-0.4v-7.5c0-0.3-0.2-0.4-0.4-0.4H49c-0.3,0-0.4-0.2-0.4-0.4v-1.7
		c0-0.3,0.2-0.4,0.4-0.4h4.2c0.3,0,0.4,0.2,0.4,0.4L53.7,30.2z M51.8,14.2c1.1,0,2,1,2,2c0,1.1-0.9,2-2,2s-2-1-2-2
		C49.8,15.1,50.7,14.2,51.8,14.2z M96.9,27.1c0,0.3-0.2,0.4-0.4,0.4H89v0.4c0,1.7,1.4,2.7,3.4,2.7h3.5c0.3,0,0.4,0.2,0.4,0.4v1.7
		c0,0.3-0.2,0.4-0.4,0.4h-4.1c-3.5,0-6.2-1.9-6.2-5.5v-3.5c0-2.8,1.3-4.9,5.8-4.9c3.8,0,5.4,1.9,5.4,4.3
		C96.8,23.5,96.9,27.1,96.9,27.1z M89.1,24.8c0,0.3,0.1,0.4,0.4,0.4h3.9c0.3,0,0.4-0.2,0.4-0.4v-0.6c0-1.3-0.5-2.1-2.3-2.1
		c-2,0-2.4,1-2.4,2.2V24.8z M101.2,22.7c0-0.3-0.2-0.4-0.4-0.4h-0.9c-0.3,0-0.4-0.2-0.4-0.4v-1.7c0-0.3,0.2-0.4,0.4-0.4h6.8
		c2,0,3.6,1.5,3.6,3.5v1.1c0,0.3-0.2,0.4-0.4,0.4h-2.2c-0.3,0-0.4-0.2-0.4-0.4v-0.7c0-0.8-0.6-1.3-1.5-1.3H105
		c-0.3,0-0.4,0.2-0.4,0.4v7.5c0,0.3,0.2,0.4,0.4,0.4h2.6c0.3,0,0.4,0.2,0.4,0.4v1.7c0,0.3-0.2,0.4-0.4,0.4H100
		c-0.3,0-0.4-0.2-0.4-0.4v-1.7c0-0.3,0.2-0.4,0.4-0.4h0.9c0.3,0,0.4-0.2,0.4-0.4C101.3,30.3,101.2,22.7,101.2,22.7z M129.5,22.7
		c0-0.3-0.2-0.4-0.4-0.4h-0.9c-0.3,0-0.4-0.2-0.4-0.4v-1.7c0-0.3,0.2-0.4,0.4-0.4h6.8c2,0,3.6,1.5,3.6,3.5v1.1
		c0,0.3-0.2,0.4-0.4,0.4H136c-0.3,0-0.4-0.2-0.4-0.4v-0.7c0-0.8-0.6-1.3-1.5-1.3h-0.8c-0.3,0-0.4,0.2-0.4,0.4v7.5
		c0,0.3,0.2,0.4,0.4,0.4h2.6c0.3,0,0.4,0.2,0.4,0.4v1.7c0,0.3-0.2,0.4-0.4,0.4h-7.6c-0.3,0-0.4-0.2-0.4-0.4v-1.7
		c0-0.3,0.2-0.4,0.4-0.4h0.9c0.3,0,0.4-0.2,0.4-0.4L129.5,22.7L129.5,22.7z M147.4,23.7c0-1-1.1-1.7-2.5-1.7s-3.9,0.4-4.1,0.4
		c-0.2,0-0.3-0.1-0.3-0.3v-1.9c0-0.2,0-0.4,0.3-0.4c0.9-0.2,3.2-0.3,4-0.3c3.3,0,5.9,1,5.9,4.3v6.3c0,0.4,0.3,0.7,0.6,0.7h0.1
		c0.3,0,0.4,0.2,0.4,0.4v1.7c0,0.3-0.2,0.4-0.4,0.4h-1c-1.5,0-2.2-0.5-2.5-1.5c-0.1-0.2-0.1-0.2-0.2-0.2s-0.2,0.1-0.3,0.2
		c-0.4,1.1-1.1,1.5-2.9,1.5h-1.1c-2.1,0-3.7-1.5-3.7-3.5v-0.6c0-2.1,1.5-3.3,3.6-3.7l4.1-0.9L147.4,23.7L147.4,23.7z M145.2,30.7
		c1.9,0,2.1-1.1,2.1-2.8V27l-3.1,0.8c-0.8,0.2-1.2,0.8-1.2,1.5v0.3c0,0.8,0.6,1.2,1.5,1.2C144.5,30.8,145.2,30.7,145.2,30.7z
		 M167.4,18.2c1.1,0,2-1,2-2c0-1.1-0.9-2-2-2s-2,1-2,2C165.4,17.3,166.3,18.2,167.4,18.2z"/>
	<path class="st1" d="M171.3,30.7h-1.7c-0.3,0-0.4-0.2-0.4-0.4V20.2c0-0.3-0.2-0.4-0.4-0.4h-9.6c-0.2,0-0.4-0.2-0.4-0.4V19
		c0-1,0.8-1.9,1.9-1.9h0.9c0.2,0,0.4-0.2,0.4-0.4V15c0-0.2-0.2-0.4-0.4-0.4H160c-2.8,0-4.5,1.1-4.5,3.8v1c0,0.2-0.2,0.4-0.4,0.4
		h-1.4c-0.2,0-0.4,0.2-0.4,0.4v1.7c0,0.2,0.2,0.4,0.4,0.4h1.4c0.2,0,0.4,0.2,0.4,0.4v10.1c0,0.2,0.2,0.4,0.4,0.4h2.4
		c0.2,0,0.4-0.2,0.4-0.4V22.6c0-0.2,0.2-0.4,0.4-0.4h6.4c0.3,0,0.4,0.2,0.4,0.4v7.5c0,0.3-0.2,0.4-0.4,0.4h-1.3
		c-0.3,0-0.4,0.2-0.4,0.4v1.7c0,0.3,0.2,0.4,0.4,0.4h7.2c0.3,0,0.4-0.2,0.4-0.4v-1.7C171.8,30.9,171.6,30.7,171.3,30.7L171.3,30.7z
		 M65.7,26.4c-0.1-0.1-0.2-0.3-0.2-0.4s0.1-0.3,0.2-0.4l4.1-5.1c0.1-0.2,0.2-0.4,0.2-0.5c0-0.2-0.2-0.4-0.5-0.4h-2
		c-0.7,0-0.9,0.2-1.3,0.8l-3.1,3.9l-0.2,0.2h-1.2v-7.3c0-0.3-0.2-0.4-0.4-0.4h-2.4c-0.3,0-0.4,0.2-0.4,0.4v15.6
		c0,0.3,0.2,0.4,0.4,0.4h2.4c0.3,0,0.4-0.2,0.4-0.4v-5.4h1c0.1,0.3,0.4,0.6,0.6,0.9l3.6,4.5c0.3,0.3,0.4,0.4,1,0.4h2.3
		c0.3,0,0.5-0.1,0.5-0.4c0-0.1-0.1-0.3-0.2-0.5C70.5,32.3,65.7,26.4,65.7,26.4z M79.8,26.4c-0.1-0.1-0.2-0.3-0.2-0.4
		s0.1-0.3,0.2-0.4l4.1-5.1C84,20.3,84,20.1,84,20c0-0.2-0.2-0.4-0.5-0.4h-2c-0.7,0-0.9,0.2-1.3,0.8l-3.1,3.9l-0.2,0.2h-1.2v-7.3
		c0-0.3-0.2-0.4-0.4-0.4h-2.4c-0.3,0-0.4,0.2-0.4,0.4v15.6c0,0.3,0.2,0.4,0.4,0.4h2.4c0.3,0,0.4-0.2,0.4-0.4v-5.4h1
		c0.1,0.3,0.4,0.6,0.6,0.9l3.6,4.5c0.3,0.3,0.4,0.4,1,0.4h2.3c0.3,0,0.5-0.1,0.5-0.4c0-0.1-0.1-0.3-0.2-0.5
		C84.5,32.3,79.8,26.4,79.8,26.4z M186.1,32.5l-4.9-6.1c-0.1-0.1-0.2-0.3-0.2-0.4s0.1-0.3,0.2-0.4l4.1-5.1c0.1-0.2,0.2-0.4,0.2-0.5
		c0-0.2-0.2-0.4-0.5-0.4h-2c-0.7,0-0.9,0.2-1.3,0.8l-3.1,3.9l-0.2,0.2h-1.2v-7.4c0-0.3-0.2-0.4-0.4-0.4h-2.4c-0.3,0-0.4,0.2-0.4,0.4
		v15.8c0,0.3,0.2,0.4,0.4,0.4h2.4c0.3,0,0.4-0.2,0.4-0.4v-5.4h1c0.1,0.3,0.4,0.6,0.6,0.9l3.6,4.5c0.3,0.3,0.4,0.4,1,0.4h2.3
		c0.3,0,0.5-0.1,0.5-0.4C186.3,32.8,186.3,32.7,186.1,32.5L186.1,32.5z"/>
	<g>
		<path class="st1" d="M118.9,18.6c0-0.3-0.2-0.5-0.4-0.5h-4.3c-0.3,0-0.5-0.2-0.5-0.5v-2c0-0.3,0.2-0.5,0.5-0.5h12.9
			c0.3,0,0.5,0.2,0.5,0.5v2c0,0.3-0.2,0.5-0.5,0.5h-4.3c-0.3,0-0.4,0.2-0.4,0.5v14.3c0,0.3-0.2,0.5-0.5,0.5h-2.6
			c-0.3,0-0.4-0.2-0.4-0.5C118.9,32.9,118.9,18.6,118.9,18.6z"/>
	</g>
	<g>
		<path class="st1" d="M46.8,5.4c0-0.5-0.6-0.9-1.3-0.9s-2,0.2-2.1,0.2s-0.1,0-0.1-0.2v-1c0-0.1,0-0.2,0.2-0.2
			c0.5-0.1,1.6-0.2,2-0.2c1.7,0,3,0.5,3,2.2v3.2c0,0.2,0.1,0.4,0.3,0.4h0.1c0.1,0,0.2,0.1,0.2,0.2V10c0,0.1-0.1,0.2-0.2,0.2h-0.5
			c-0.8,0-1.1-0.2-1.3-0.8c0-0.1-0.1-0.1-0.1-0.1c-0.1,0-0.1,0-0.2,0.1c-0.2,0.5-0.6,0.8-1.5,0.8h-0.6c-1.1,0-1.9-0.8-1.9-1.8V8.1
			c0-1.1,0.8-1.7,1.8-1.9l2.1-0.4C46.7,5.8,46.8,5.4,46.8,5.4z M46,0c0.8,0,1.4,0.6,1.4,1.4S46.8,2.9,46,2.9c-0.8,0-1.4-0.6-1.4-1.4
			S45.2,0,46,0z M45.8,9c1,0,1.1-0.5,1.1-1.4V7.1l-1.6,0.4c-0.4,0.1-0.6,0.4-0.6,0.8v0.1C44.6,8.8,45,9,45.4,9C45.4,9,45.8,9,45.8,9
			z M46,2.1c0.3,0,0.6-0.3,0.6-0.6S46.3,0.9,46,0.9s-0.6,0.3-0.6,0.6S45.7,2.1,46,2.1z M54.3,3.3c0.1,0,0.2-0.1,0.2-0.2V1
			c0-0.1,0.1-0.2,0.2-0.2h1.2c0.1,0,0.2,0.1,0.2,0.2v7.4c0,1.6-1,2.1-3.2,2.1c-1.9,0-2.8-0.7-2.8-2.1v-3c0-1.3,1-2.1,2.7-2.1
			C52.8,3.3,54.3,3.3,54.3,3.3z M51.9,5.9v2.3c0,0.6,0.2,0.9,1.2,0.9h0.2c1,0,1.2-0.3,1.2-0.9V5c0-0.2-0.6-0.3-1.4-0.3
			C52,4.7,51.9,5,51.9,5.9z M63.4,7.2c0,0.1-0.1,0.2-0.2,0.2h-3.8v0.2c0,0.9,0.7,1.4,1.8,1.4H63c0.1,0,0.2,0.1,0.2,0.2v0.9
			c0,0.1-0.1,0.2-0.2,0.2h-2.1c-1.8,0-3.1-0.9-3.1-2.8V5.7c0-1.4,0.7-2.5,2.9-2.5c2,0,2.8,1,2.8,2.2C63.5,5.4,63.4,7.2,63.4,7.2z
			 M59.4,6c0,0.1,0,0.2,0.2,0.2h2c0.1,0,0.2-0.1,0.2-0.2V5.7c0-0.6-0.3-1.1-1.2-1.1c-1,0-1.2,0.5-1.2,1.1V6z M65.5,4.8
			c0-0.1-0.1-0.2-0.2-0.2h-0.7c-0.1,0-0.2-0.1-0.2-0.2V3.5c0-0.1,0.1-0.2,0.2-0.2h0.7c0.1,0,0.2-0.1,0.2-0.2V1.8
			c0-0.1,0.1-0.2,0.2-0.2h1.2c0.1,0,0.2,0.1,0.2,0.2v1.3c0,0.1,0.1,0.2,0.2,0.2h1.2c0.1,0,0.2,0.1,0.2,0.2v0.9
			c0,0.1-0.1,0.2-0.2,0.2h-1.2c-0.1,0-0.2,0.1-0.2,0.2v3.1c0,0.8,0.2,1,0.8,1h0.7c0.1,0,0.2,0.1,0.2,0.2V10c0,0.1-0.1,0.2-0.2,0.2
			H67c-1.1,0-1.5-0.5-1.5-1.6V4.8z M73.5,2.6c0-1.4,0.9-1.9,2.3-1.9h0.8c0.1,0,0.2,0.1,0.2,0.2v0.9c0,0.1-0.1,0.2-0.2,0.2h-0.5
			c-0.7,0-0.9,0.2-0.9,1v0.1c0,0.1,0.1,0.2,0.2,0.2h1.1c0.1,0,0.2,0.1,0.2,0.2v0.9c0,0.1-0.1,0.2-0.2,0.2h-1.1
			c-0.1,0-0.2,0.1-0.2,0.2V10c0,0.1-0.1,0.2-0.2,0.2h-1.2c-0.1,0-0.2-0.1-0.2-0.2V4.8c0-0.1-0.1-0.2-0.2-0.2h-0.7
			c-0.1,0-0.2-0.1-0.2-0.2V3.5c0-0.1,0.1-0.2,0.2-0.2h0.7c0.1,0,0.2-0.1,0.2-0.2L73.5,2.6L73.5,2.6z M77.5,5.2c0-1.2,0.7-2.1,3-2.1
			c2.2,0,3,0.9,3,2.1v3c0,1.2-0.8,2.1-3,2.1s-3-0.9-3-2.1C77.5,8.2,77.5,5.2,77.5,5.2z M79.2,8c0,0.7,0.2,1.1,1.3,1.1
			c1,0,1.3-0.4,1.3-1.1V5.5c0-0.6-0.2-1.1-1.3-1.1s-1.3,0.4-1.3,1.1V8z M85.4,4.8c0-0.1-0.1-0.2-0.2-0.2h-0.5
			c-0.1,0-0.2-0.1-0.2-0.2V3.5c0-0.1,0.1-0.2,0.2-0.2h3.5c1,0,1.8,0.8,1.8,1.8v0.5c0,0.1-0.1,0.2-0.2,0.2h-1.1
			c-0.1,0-0.2-0.1-0.2-0.2V5.3c0-0.4-0.3-0.7-0.8-0.7h-0.4c-0.1,0-0.2,0.1-0.2,0.2v3.8c0,0.1,0.1,0.2,0.2,0.2h1.3
			c0.1,0,0.2,0.1,0.2,0.2v0.9c0,0.1-0.1,0.2-0.2,0.2h-3.9c-0.1,0-0.2-0.1-0.2-0.2V9c0-0.1,0.1-0.2,0.2-0.2h0.5
			c0.1,0,0.2-0.1,0.2-0.2C85.4,8.6,85.4,4.8,85.4,4.8z M41.8,10c0,0.1,0.1,0.2,0.1,0.2c0,0.1-0.1,0.2-0.2,0.2h-1.4
			c-0.2,0-0.2,0-0.4-0.2l-2.3-3.4c-0.1-0.2-0.2-0.4-0.2-0.6v-1c0-0.1,0.1-0.2,0.2-0.2H39c0.4,0,0.8-0.3,0.8-0.8V2.9
			c0-0.4-0.3-0.8-0.8-0.8h-2.2c-0.1,0-0.2,0.1-0.2,0.2v7.8c0,0.1-0.1,0.2-0.2,0.2h-1.3c-0.1,0-0.2-0.1-0.2-0.2V2.3
			c0-0.1-0.1-0.2-0.2-0.2h-0.5C34.1,2.1,34,2,34,1.9V1c0-0.1,0.1-0.2,0.2-0.2h5.5c1,0,1.8,0.8,1.8,1.8v1.7c0,1-0.8,1.8-1.8,1.8h-0.5
			C39.2,6.1,41.8,10,41.8,10z"/>
	</g>
</g>
</svg>
