<svg id="Layer_1" data-name="Layer 1" xmlns="http://www.w3.org/2000/svg" width="24" height="24" viewBox="0 0 24 24"><defs><style>.cls-1{fill:#373d46;}</style></defs><title>instagram_1</title><path class="cls-1" d="M12,1.16A10.84,10.84,0,1,1,1.16,12,10.85,10.85,0,0,1,12,1.16ZM12,0A12,12,0,1,0,24,12,12,12,0,0,0,12,0Zm0,7.08c1.6,0,1.79,0,2.43,0a2.26,2.26,0,0,1,2.46,2.46c0,.63,0,.82,0,2.42s0,1.79,0,2.42a2.26,2.26,0,0,1-2.46,2.46c-.64,0-.83,0-2.43,0s-1.79,0-2.42,0a2.25,2.25,0,0,1-2.46-2.46c0-.63,0-.82,0-2.42s0-1.79,0-2.42A2.25,2.25,0,0,1,9.58,7.12C10.21,7.09,10.4,7.08,12,7.08ZM12,6c-1.63,0-1.83,0-2.47,0A3.31,3.31,0,0,0,6,9.53c0,.64,0,.84,0,2.47s0,1.83,0,2.47A3.31,3.31,0,0,0,9.53,18c.64,0,.84,0,2.47,0s1.83,0,2.48,0A3.3,3.3,0,0,0,18,14.47c0-.64,0-.84,0-2.47s0-1.83,0-2.47A3.3,3.3,0,0,0,14.48,6C13.83,6,13.63,6,12,6Zm0,2.92A3.08,3.08,0,1,0,15.08,12,3.08,3.08,0,0,0,12,8.92ZM12,14a2,2,0,1,1,2-2A2,2,0,0,1,12,14Zm3.2-5.92a.72.72,0,1,0,.72.72A.72.72,0,0,0,15.2,8.08Z"/></svg>
