<svg id="Layer_1" data-name="Layer 1" xmlns="http://www.w3.org/2000/svg" width="109.41" height="210.42" viewBox="0 0 109.41 210.42"><defs><style>.cls-1{fill:#373d46;}.cls-1,.cls-2{stroke:#373d46;stroke-miterlimit:10;}.cls-2{fill:none;}</style></defs><title>drive</title><path class="cls-1" d="M95.79,28.07a17.8,17.8,0,1,0-21,17.5v58.9h6.46V45.57A17.8,17.8,0,0,0,95.79,28.07Z"/><path class="cls-2" d="M81.22,163.37v-58.9H74.76v58.9a17.8,17.8,0,1,0,6.46,0Z"/><path class="cls-1" d="M45.63,33.31c0,6.95-5.08,12.56-13.09,12.56H16.86A.84.84,0,0,1,16,45V40.73a.84.84,0,0,1,.85-.85h1.69a.79.79,0,0,0,.8-.84V17.1a.8.8,0,0,0-.8-.85H16.86A.84.84,0,0,1,16,15.4V11.11a.84.84,0,0,1,.85-.85H32.54c8,0,13.09,5.62,13.09,12.56ZM37.58,22.87c0-3.65-2.44-6.62-6.1-6.62H28.2a.8.8,0,0,0-.8.85V39a.79.79,0,0,0,.8.84h3.28c3.66,0,6.1-3,6.1-6.62Z"/><path class="cls-2" d="M47.7,197.23a1.45,1.45,0,0,1,.32.8c0,.42-.32.63-.8.63H40.55a1.61,1.61,0,0,1-1.38-.84l-8.53-11.93a3.41,3.41,0,0,1-.75-2.22v-4.4a.84.84,0,0,1,.85-.85h5.09a2.8,2.8,0,0,0,2.81-2.86V171.9A2.8,2.8,0,0,0,35.83,169H28.2a.8.8,0,0,0-.8.85v27.93a.83.83,0,0,1-.84.84H20.14a.79.79,0,0,1-.79-.84V169.89a.8.8,0,0,0-.8-.85H16.86a.84.84,0,0,1-.85-.85V163.9a.84.84,0,0,1,.85-.85H40a6.71,6.71,0,0,1,6.73,6.79v7.26A6.71,6.71,0,0,1,40,183.88H38Z"/></svg>
