<svg id="Layer_1" data-name="Layer 1" xmlns="http://www.w3.org/2000/svg" width="33.8" height="33.8" viewBox="0 0 33.8 33.8"><defs><style>.cls-1{fill:#414b5a;}.cls-2{fill:#fff;}</style></defs><title>fullscreen</title><rect class="cls-1" x="-0.05" y="-0.05" width="33.9" height="33.9" rx="7.61"/><polygon class="cls-2" points="23.67 18.35 23.67 23.67 18.45 23.67 18.45 28.68 23.67 28.68 28.68 28.68 28.68 23.67 28.68 18.35 23.67 18.35"/><polygon class="cls-2" points="15.46 23.67 10.13 23.67 10.13 18.46 5.12 18.46 5.12 23.67 5.12 28.68 10.13 28.68 15.46 28.68 15.46 23.67"/><polygon class="cls-2" points="10.13 15.46 10.13 10.13 15.35 10.13 15.35 5.12 10.13 5.12 5.12 5.12 5.12 10.13 5.12 15.46 10.13 15.46"/><polygon class="cls-2" points="18.34 10.13 23.67 10.13 23.67 15.35 28.68 15.35 28.68 10.13 28.68 5.12 23.67 5.12 18.34 5.12 18.34 10.13"/></svg>
