<svg id="logo" xmlns="http://www.w3.org/2000/svg" width="186.3" height="34" viewBox="0 0 186.3 34"><defs><style>.cls-1{fill:#3f0;fill-rule:evenodd;}.cls-2{fill:#fff;}</style></defs><title>logo</title><path class="cls-1" d="M25,21.6A12.5,12.5,0,1,1,12.6,9,12.57,12.57,0,0,1,25,21.6ZM14.4,15.7a2,2,0,0,1-4,0,1.83,1.83,0,0,1,1.3-1.8v-1H10.5V11.6h1.2V10.4H13v1.2h1.2v1.3H13v1A1.89,1.89,0,0,1,14.4,15.7Zm-1.1,0a.8.8,0,1,0-.8.8A.86.86,0,0,0,13.3,15.7Zm5.2,13.2H6.5v1.4H18.4V28.9Zm-.1-1.1H6.5C5,26.5,2.8,23.9,2.9,21.5A2.91,2.91,0,0,1,5,18.8a3.61,3.61,0,0,1,2.8.4,2.54,2.54,0,0,1,1.3-.9,3,3,0,0,1,3.3.9,3.09,3.09,0,0,1,3.3-1,2.43,2.43,0,0,1,1.4,1,3.15,3.15,0,0,1,2.9-.4,2.82,2.82,0,0,1,2,2.8C22.2,23.9,19.9,26.5,18.4,27.8Zm-7.9-1.4C9.1,25,7.3,23,7.3,21.1v-.4C6.4,20,6,20,5.4,20.2a1.27,1.27,0,0,0-1,1.4c0,1.2.7,2.8,2.7,4.8Zm5.7-5.3c0-.9-.4-1.7-1.4-1.7A1.67,1.67,0,0,0,13.1,21a1.38,1.38,0,0,0,1,1.4,6,6,0,0,1-1.6,1.9h-.1a13.72,13.72,0,0,1-1.6-1.8,1.38,1.38,0,0,0,1-1.4c0-.2-.1-.4-.1-.6a.1.1,0,0,0-.1-.1v-.1a.1.1,0,0,0-.1-.1,2.38,2.38,0,0,0-1.1-.6,1.7,1.7,0,0,0-.7.1c-.4.1-.7.4-.9,1.1v.6c.1,1.2,1.4,2.9,3.7,5C15,24.1,16.2,22.4,16.2,21.1Zm4.4.5a1.27,1.27,0,0,0-1-1.4c-.6-.2-1.1-.1-2,.5v.4c0,1.9-1.8,3.9-3.2,5.3h3.5C19.9,24.4,20.7,22.8,20.6,21.6Z"/><path class="cls-2" d="M41,30.3A1.32,1.32,0,0,0,42.5,29V28c0-.8-.4-1.2-1.6-1.7l-3.5-1.6c-2.3-1-3.6-1.7-3.6-3.8V18.8a3.48,3.48,0,0,1,3.6-3.4h7.2a.46.46,0,0,1,.5.4v2a.46.46,0,0,1-.5.4H38.9a1.32,1.32,0,0,0-1.5,1.3v.8c0,.9.7,1.1,1.7,1.5l3.3,1.6c2.6,1.2,3.8,2,3.8,4.2v2.2a3.67,3.67,0,0,1-3.8,3.4H34a.46.46,0,0,1-.5-.4V30.7a.46.46,0,0,1,.5-.4Zm12.7-.1a.37.37,0,0,0,.4.4h1.7a.37.37,0,0,1,.4.4v1.7a.37.37,0,0,1-.4.4H48.6a.37.37,0,0,1-.4-.4V31a.37.37,0,0,1,.4-.4h1.3a.37.37,0,0,0,.4-.4V22.7a.37.37,0,0,0-.4-.4H49a.37.37,0,0,1-.4-.4V20.2a.37.37,0,0,1,.4-.4h4.2a.37.37,0,0,1,.4.4Zm-1.9-16a2.07,2.07,0,0,1,2,2,2,2,0,0,1-2,2,2.07,2.07,0,0,1-2-2A2,2,0,0,1,51.8,14.2ZM96.9,27.1a.37.37,0,0,1-.4.4H89v.4c0,1.7,1.4,2.7,3.4,2.7h3.5a.37.37,0,0,1,.4.4v1.7a.37.37,0,0,1-.4.4H91.8c-3.5,0-6.2-1.9-6.2-5.5V24.1c0-2.8,1.3-4.9,5.8-4.9,3.8,0,5.4,1.9,5.4,4.3Zm-7.8-2.3c0,.3.1.4.4.4h3.9a.37.37,0,0,0,.4-.4v-.6c0-1.3-.5-2.1-2.3-2.1-2,0-2.4,1-2.4,2.2Zm12.1-2.1a.37.37,0,0,0-.4-.4h-.9a.37.37,0,0,1-.4-.4V20.2a.37.37,0,0,1,.4-.4h6.8a3.5,3.5,0,0,1,3.6,3.5v1.1a.37.37,0,0,1-.4.4h-2.2a.37.37,0,0,1-.4-.4v-.7a1.32,1.32,0,0,0-1.5-1.3H105a.37.37,0,0,0-.4.4v7.5a.37.37,0,0,0,.4.4h2.6a.37.37,0,0,1,.4.4v1.7a.37.37,0,0,1-.4.4H100a.37.37,0,0,1-.4-.4V31.1a.37.37,0,0,1,.4-.4h.9a.37.37,0,0,0,.4-.4Zm28.3,0a.37.37,0,0,0-.4-.4h-.9a.37.37,0,0,1-.4-.4V20.2a.37.37,0,0,1,.4-.4H135a3.5,3.5,0,0,1,3.6,3.5v1.1a.37.37,0,0,1-.4.4H136a.37.37,0,0,1-.4-.4v-.7a1.32,1.32,0,0,0-1.5-1.3h-.8a.37.37,0,0,0-.4.4v7.5a.37.37,0,0,0,.4.4h2.6a.37.37,0,0,1,.4.4v1.7a.37.37,0,0,1-.4.4h-7.6a.37.37,0,0,1-.4-.4V31.1a.37.37,0,0,1,.4-.4h.9a.37.37,0,0,0,.4-.4l-.1-7.6Zm17.9,1c0-1-1.1-1.7-2.5-1.7s-3.9.4-4.1.4a.27.27,0,0,1-.3-.3V20.2c0-.2,0-.4.3-.4a28,28,0,0,1,4-.3c3.3,0,5.9,1,5.9,4.3v6.3a.67.67,0,0,0,.6.7h.1a.37.37,0,0,1,.4.4v1.7a.37.37,0,0,1-.4.4h-1c-1.5,0-2.2-.5-2.5-1.5-.1-.2-.1-.2-.2-.2s-.2.1-.3.2c-.4,1.1-1.1,1.5-2.9,1.5h-1.1a3.53,3.53,0,0,1-3.7-3.5v-.6c0-2.1,1.5-3.3,3.6-3.7l4.1-.9v-.9Zm-2.2,7c1.9,0,2.1-1.1,2.1-2.8V27l-3.1.8a1.49,1.49,0,0,0-1.2,1.5v.3c0,.8.6,1.2,1.5,1.2Zm22.2-12.5a2.07,2.07,0,0,0,2-2,2,2,0,0,0-2-2,2.07,2.07,0,0,0-2,2A2,2,0,0,0,167.4,18.2Z"/><path class="cls-2" d="M171.3,30.7h-1.7a.37.37,0,0,1-.4-.4V20.2a.37.37,0,0,0-.4-.4h-9.6a.43.43,0,0,1-.4-.4V19a1.9,1.9,0,0,1,1.9-1.9h.9a.43.43,0,0,0,.4-.4V15a.43.43,0,0,0-.4-.4H160c-2.8,0-4.5,1.1-4.5,3.8v1a.43.43,0,0,1-.4.4h-1.4a.43.43,0,0,0-.4.4v1.7a.43.43,0,0,0,.4.4h1.4a.43.43,0,0,1,.4.4V32.8a.43.43,0,0,0,.4.4h2.4a.43.43,0,0,0,.4-.4V22.6a.43.43,0,0,1,.4-.4h6.4a.37.37,0,0,1,.4.4v7.5a.37.37,0,0,1-.4.4h-1.3a.37.37,0,0,0-.4.4v1.7a.37.37,0,0,0,.4.4h7.2a.37.37,0,0,0,.4-.4V30.9a.77.77,0,0,0-.5-.2ZM65.7,26.4a.5.5,0,0,1,0-.8l4.1-5.1A1.69,1.69,0,0,0,70,20a.46.46,0,0,0-.5-.4h-2c-.7,0-.9.2-1.3.8l-3.1,3.9-.2.2H61.7V17.2a.37.37,0,0,0-.4-.4H58.9a.37.37,0,0,0-.4.4V32.8a.37.37,0,0,0,.4.4h2.4a.37.37,0,0,0,.4-.4V27.4h1a4.7,4.7,0,0,0,.6.9l3.6,4.5a1.05,1.05,0,0,0,1,.4h2.3c.3,0,.5-.1.5-.4a1.69,1.69,0,0,0-.2-.5Zm14.1,0a.5.5,0,0,1,0-.8l4.1-5.1A1.09,1.09,0,0,0,84,20a.46.46,0,0,0-.5-.4h-2c-.7,0-.9.2-1.3.8l-3.1,3.9-.2.2H75.7V17.2a.37.37,0,0,0-.4-.4H72.9a.37.37,0,0,0-.4.4V32.8a.37.37,0,0,0,.4.4h2.4a.37.37,0,0,0,.4-.4V27.4h1a4.7,4.7,0,0,0,.6.9l3.6,4.5a1.05,1.05,0,0,0,1,.4h2.3c.3,0,.5-.1.5-.4a1.69,1.69,0,0,0-.2-.5Zm106.3,6.1-4.9-6.1a.5.5,0,0,1,0-.8l4.1-5.1a1.69,1.69,0,0,0,.2-.5.46.46,0,0,0-.5-.4h-2c-.7,0-.9.2-1.3.8l-3.1,3.9-.2.2h-1.2V17.1a.37.37,0,0,0-.4-.4h-2.4a.37.37,0,0,0-.4.4V32.9a.37.37,0,0,0,.4.4h2.4a.37.37,0,0,0,.4-.4V27.5h1a4.7,4.7,0,0,0,.6.9l3.6,4.5a1.05,1.05,0,0,0,1,.4h2.3c.3,0,.5-.1.5-.4.1-.1.1-.2-.1-.4Z"/><path class="cls-2" d="M118.9,18.6a.46.46,0,0,0-.4-.5h-4.3a.47.47,0,0,1-.5-.5v-2a.47.47,0,0,1,.5-.5h12.9a.47.47,0,0,1,.5.5v2a.47.47,0,0,1-.5.5h-4.3c-.3,0-.4.2-.4.5V32.9a.47.47,0,0,1-.5.5h-2.6c-.3,0-.4-.2-.4-.5Z"/><path class="cls-2" d="M46.8,5.4c0-.5-.6-.9-1.3-.9s-2,.2-2.1.2-.1,0-.1-.2v-1c0-.1,0-.2.2-.2a15,15,0,0,1,2-.2c1.7,0,3,.5,3,2.2V8.5c0,.2.1.4.3.4h.1a.22.22,0,0,1,.2.2V10a.22.22,0,0,1-.2.2h-.5c-.8,0-1.1-.2-1.3-.8a.1.1,0,0,0-.1-.1c-.1,0-.1,0-.2.1-.2.5-.6.8-1.5.8h-.6a1.82,1.82,0,0,1-1.9-1.8V8.1a2,2,0,0,1,1.8-1.9l2.1-.4ZM46,0a1.37,1.37,0,0,1,1.4,1.4A1.45,1.45,0,0,1,46,2.9a1.37,1.37,0,0,1-1.4-1.4A1.45,1.45,0,0,1,46,0Zm-.2,9c1,0,1.1-.5,1.1-1.4V7.1l-1.6.4a.76.76,0,0,0-.6.8v.1c-.1.4.3.6.7.6ZM46,2.1a.65.65,0,0,0,.6-.6.6.6,0,0,0-1.2,0A.65.65,0,0,0,46,2.1Zm8.3,1.2a.22.22,0,0,0,.2-.2V1a.22.22,0,0,1,.2-.2h1.2a.22.22,0,0,1,.2.2V8.4c0,1.6-1,2.1-3.2,2.1-1.9,0-2.8-.7-2.8-2.1v-3c0-1.3,1-2.1,2.7-2.1ZM51.9,5.9V8.2c0,.6.2.9,1.2.9h.2c1,0,1.2-.3,1.2-.9V5c0-.2-.6-.3-1.4-.3C52,4.7,51.9,5,51.9,5.9ZM63.4,7.2a.22.22,0,0,1-.2.2H59.4v.2c0,.9.7,1.4,1.8,1.4H63a.22.22,0,0,1,.2.2v.9a.22.22,0,0,1-.2.2H60.9c-1.8,0-3.1-.9-3.1-2.8V5.7c0-1.4.7-2.5,2.9-2.5,2,0,2.8,1,2.8,2.2ZM59.4,6c0,.1,0,.2.2.2h2a.22.22,0,0,0,.2-.2V5.7c0-.6-.3-1.1-1.2-1.1s-1.2.5-1.2,1.1Zm6.1-1.2a.22.22,0,0,0-.2-.2h-.7a.22.22,0,0,1-.2-.2V3.5a.22.22,0,0,1,.2-.2h.7a.22.22,0,0,0,.2-.2V1.8a.22.22,0,0,1,.2-.2h1.2a.22.22,0,0,1,.2.2V3.1a.22.22,0,0,0,.2.2h1.2a.22.22,0,0,1,.2.2v.9a.22.22,0,0,1-.2.2H67.3a.22.22,0,0,0-.2.2V7.9c0,.8.2,1,.8,1h.7a.22.22,0,0,1,.2.2V10a.22.22,0,0,1-.2.2H67c-1.1,0-1.5-.5-1.5-1.6Zm8-2.2c0-1.4.9-1.9,2.3-1.9h.8a.22.22,0,0,1,.2.2v.9a.22.22,0,0,1-.2.2h-.5c-.7,0-.9.2-.9,1v.1a.22.22,0,0,0,.2.2h1.1a.22.22,0,0,1,.2.2v.9a.22.22,0,0,1-.2.2H75.4a.22.22,0,0,0-.2.2V10a.22.22,0,0,1-.2.2H73.8a.22.22,0,0,1-.2-.2V4.8a.22.22,0,0,0-.2-.2h-.7a.22.22,0,0,1-.2-.2V3.5a.22.22,0,0,1,.2-.2h.7a.22.22,0,0,0,.2-.2l-.1-.5Zm4,2.6c0-1.2.7-2.1,3-2.1s3,.9,3,2.1v3c0,1.2-.8,2.1-3,2.1s-3-.9-3-2.1ZM79.2,8c0,.7.2,1.1,1.3,1.1s1.3-.4,1.3-1.1V5.5c0-.6-.2-1.1-1.3-1.1s-1.3.4-1.3,1.1Zm6.2-3.2a.22.22,0,0,0-.2-.2h-.5a.22.22,0,0,1-.2-.2V3.5a.22.22,0,0,1,.2-.2h3.5A1.79,1.79,0,0,1,90,5.1v.5a.22.22,0,0,1-.2.2H88.7a.22.22,0,0,1-.2-.2V5.3a.71.71,0,0,0-.8-.7h-.4a.22.22,0,0,0-.2.2V8.6a.22.22,0,0,0,.2.2h1.3a.22.22,0,0,1,.2.2v.9a.22.22,0,0,1-.2.2H84.7a.22.22,0,0,1-.2-.2V9a.22.22,0,0,1,.2-.2h.5a.22.22,0,0,0,.2-.2ZM41.8,10a.35.35,0,0,0,.1.2.22.22,0,0,1-.2.2H40.3c-.2,0-.2,0-.4-.2L37.6,6.8a1.42,1.42,0,0,1-.2-.6v-1a.22.22,0,0,1,.2-.2H39a.79.79,0,0,0,.8-.8V2.9a.79.79,0,0,0-.8-.8H36.8a.22.22,0,0,0-.2.2v7.8a.22.22,0,0,1-.2.2H35.1a.22.22,0,0,1-.2-.2V2.3a.22.22,0,0,0-.2-.2h-.5a.22.22,0,0,1-.2-.2V1a.22.22,0,0,1,.2-.2h5.5a1.79,1.79,0,0,1,1.8,1.8V4.3a1.79,1.79,0,0,1-1.8,1.8h-.5Z"/></svg>
