<svg id="Layer_1" data-name="Layer 1" xmlns="http://www.w3.org/2000/svg" width="157.97" height="70.74" viewBox="0 0 157.97 70.74"><defs><style>.cls-1{fill:#27aae1;}.cls-2{fill:#fff;}.cls-3{fill:#231f20;}.cls-4{fill:#eaeaea;opacity:0.61;}</style></defs><title>main_car</title><path class="cls-1" d="M36.32,14a6.34,6.34,0,0,1,4.48-2.32c3.19-.31,59.84,0,59.84,0V8s1.67-1.67,3.19,3.19c0,0,34.93-.91,35.84,4.25V53.92c-.91,5.17-35.84,4.25-35.84,4.25-1.52,4.86-3.19,3.19-3.19,3.19V57.72S44,58,40.8,57.72a6.34,6.34,0,0,1-4.48-2.32Z"/><path class="cls-2" d="M44.38,19.84S41.6,22.07,41.6,34.7s2.78,14.86,2.78,14.86l12-.81V20.65Z"/><path class="cls-2" d="M105.94,15.42,95.82,19.84V34.7h14.26C110.61,16.21,105.94,15.42,105.94,15.42Z"/><path class="cls-2" d="M95.82,34.7V49.53l10.12,4.4s4.67-.78,4.14-19.23Z"/><path class="cls-2" d="M83,14.52l-1.2,3s12.63,1.73,18.19-3Z"/><polygon class="cls-2" points="79.3 14.52 77.91 17.73 66.01 17.73 67.3 14.52 79.3 14.52"/><path class="cls-2" d="M65.06,14.52l-1.24,3.21s-4.35-.24-4.79-3.21Z"/><path class="cls-2" d="M82.79,54.68l-1.2-3s12.63-1.75,18.19,3Z"/><polygon class="cls-2" points="79.07 54.68 77.68 51.42 65.78 51.42 67.07 54.68 79.07 54.68"/><path class="cls-2" d="M64.84,54.68l-1.25-3.25s-4.34.24-4.78,3.25Z"/><ellipse class="cls-3" cx="137.38" cy="49.65" rx="0.95" ry="2.7"/><ellipse class="cls-3" cx="137.38" cy="19.41" rx="0.95" ry="2.7"/><rect class="cls-4" x="9.36" y="27.56" width="19.51" height="1.07"/><rect class="cls-4" x="16.01" y="33.09" width="12.86" height="1.07"/><rect class="cls-4" x="12.77" y="38.62" width="16.1" height="1.07"/></svg>
