<svg id="Layer_1" data-name="Layer 1" xmlns="http://www.w3.org/2000/svg" width="85.98" height="210.42" viewBox="0 0 85.98 210.42"><defs><style>.cls-1,.cls-3{fill:#28292c;}.cls-1,.cls-2{stroke:#28292c;stroke-miterlimit:10;}.cls-1{stroke-width:0.9px;}.cls-2{fill:none;}</style></defs><title>pedal</title><rect class="cls-1" x="37.74" y="11.39" width="10.5" height="32.1"/><rect class="cls-2" x="17.31" y="43.49" width="51.35" height="154.06" rx="10.71"/><rect class="cls-3" x="23.22" y="54.46" width="39.54" height="5.79" rx="2.89"/><rect class="cls-3" x="23.22" y="64.4" width="39.54" height="5.79" rx="2.89"/><rect class="cls-3" x="23.22" y="74.34" width="39.54" height="5.79" rx="2.89"/><rect class="cls-3" x="23.22" y="84.28" width="39.54" height="5.79" rx="2.89"/><rect class="cls-3" x="23.22" y="94.23" width="39.54" height="5.79" rx="2.89"/><rect class="cls-3" x="23.22" y="104.17" width="39.54" height="5.79" rx="2.89"/><rect class="cls-3" x="23.22" y="114.11" width="39.54" height="5.79" rx="2.89"/><rect class="cls-3" x="23.22" y="124.05" width="39.54" height="5.79" rx="2.89"/><rect class="cls-3" x="23.22" y="134" width="39.54" height="5.79" rx="2.89"/><rect class="cls-3" x="23.22" y="143.94" width="39.54" height="5.79" rx="2.89"/><rect class="cls-3" x="23.22" y="153.88" width="39.54" height="5.79" rx="2.89"/><rect class="cls-3" x="23.22" y="163.82" width="39.54" height="5.79" rx="2.89"/><rect class="cls-3" x="23.22" y="173.77" width="39.54" height="5.79" rx="2.89"/><rect class="cls-3" x="23.22" y="183.71" width="39.54" height="5.79" rx="2.89"/></svg>
