<svg id="Layer_1" data-name="Layer 1" xmlns="http://www.w3.org/2000/svg" width="1500.49" height="276.98" viewBox="0 0 1500.49 276.98"><defs><style>.cls-1{fill:#373d46;}.cls-2{fill:#fff;}.cls-3{fill:#bcbec0;}.cls-4{fill:#231f20;}.cls-5{fill:#eaeaea;opacity:0.61;}</style></defs><title>road_2</title><rect class="cls-1" y="49.98" width="1500.49" height="177.02"/><rect class="cls-1" y="233.24" width="1500.49" height="12.33"/><rect class="cls-1" y="31.41" width="1500.49" height="12.33"/><rect class="cls-2" y="133.56" width="29.1" height="9.86"/><rect class="cls-2" x="86.33" y="133.56" width="58.19" height="9.86"/><rect class="cls-2" x="201.75" y="133.56" width="58.19" height="9.86"/><rect class="cls-2" x="317.17" y="133.56" width="58.19" height="9.86"/><rect class="cls-2" x="432.59" y="133.56" width="58.19" height="9.86"/><rect class="cls-2" x="548.02" y="133.56" width="58.19" height="9.86"/><rect class="cls-2" x="663.44" y="133.56" width="58.19" height="9.86"/><rect class="cls-2" x="778.86" y="133.56" width="58.19" height="9.86"/><rect class="cls-2" x="894.28" y="133.56" width="58.19" height="9.86"/><rect class="cls-2" x="1009.71" y="133.56" width="58.19" height="9.86"/><rect class="cls-2" x="1125.13" y="133.56" width="58.19" height="9.86"/><rect class="cls-2" x="1240.55" y="133.56" width="58.19" height="9.86"/><rect class="cls-2" x="1355.97" y="133.56" width="58.19" height="9.86"/><rect class="cls-2" x="1471.4" y="133.56" width="29.1" height="9.86"/><path class="cls-3" d="M155.39,167.73a6.33,6.33,0,0,1,4.48-2.33c3.19-.3,59.84,0,59.84,0v-3.64s1.67-1.67,3.19,3.19c0,0,34.92-.91,35.84,4.25v38.45c-.92,5.16-35.84,4.25-35.84,4.25-1.52,4.86-3.19,3.19-3.19,3.19v-3.65s-56.65.31-59.84,0a6.34,6.34,0,0,1-4.48-2.32Z"/><path class="cls-2" d="M163.45,173.57s-2.79,2.23-2.79,14.85,2.79,14.86,2.79,14.86l12-.81v-28.1Z"/><path class="cls-2" d="M225,169.15l-10.12,4.42v14.85h14.26C229.68,169.94,225,169.15,225,169.15Z"/><path class="cls-2" d="M214.89,188.42v14.83L225,207.66s4.67-.79,4.14-19.24Z"/><path class="cls-2" d="M202.09,168.24l-1.21,3s12.63,1.73,18.2-3Z"/><polygon class="cls-2" points="198.37 168.24 196.98 171.46 185.08 171.46 186.37 168.24 198.37 168.24"/><path class="cls-2" d="M184.13,168.24l-1.24,3.22s-4.35-.24-4.79-3.22Z"/><path class="cls-2" d="M201.86,208.4l-1.2-3s12.63-1.75,18.19,3Z"/><polygon class="cls-2" points="198.14 208.4 196.75 205.15 184.85 205.15 186.14 208.4 198.14 208.4"/><path class="cls-2" d="M183.91,208.4l-1.25-3.25s-4.34.24-4.78,3.25Z"/><ellipse class="cls-4" cx="256.45" cy="203.38" rx="0.95" ry="2.7"/><ellipse class="cls-4" cx="256.45" cy="173.13" rx="0.95" ry="2.7"/><rect class="cls-5" x="128.43" y="181.29" width="19.51" height="1.07"/><rect class="cls-5" x="135.08" y="186.82" width="12.86" height="1.07"/><rect class="cls-5" x="131.84" y="192.35" width="16.1" height="1.07"/><path class="cls-3" d="M502.43,167.73a6.33,6.33,0,0,1,4.48-2.33c3.19-.3,59.83,0,59.83,0v-3.64s1.68-1.67,3.19,3.19c0,0,34.93-.91,35.84,4.25v38.45c-.91,5.16-35.84,4.25-35.84,4.25-1.51,4.86-3.19,3.19-3.19,3.19v-3.65s-56.64.31-59.83,0a6.34,6.34,0,0,1-4.48-2.32Z"/><path class="cls-2" d="M510.49,173.57s-2.79,2.23-2.79,14.85,2.79,14.86,2.79,14.86l12-.81v-28.1Z"/><path class="cls-2" d="M572.05,169.15l-10.12,4.42v14.85h14.26C576.72,169.94,572.05,169.15,572.05,169.15Z"/><path class="cls-2" d="M561.93,188.42v14.83l10.12,4.41s4.67-.79,4.14-19.24Z"/><path class="cls-2" d="M549.13,168.24l-1.21,3s12.63,1.73,18.2-3Z"/><polygon class="cls-2" points="545.4 168.24 544.01 171.46 532.11 171.46 533.4 168.24 545.4 168.24"/><path class="cls-2" d="M531.17,168.24l-1.24,3.22s-4.35-.24-4.79-3.22Z"/><path class="cls-2" d="M548.9,208.4l-1.2-3s12.63-1.75,18.19,3Z"/><polygon class="cls-2" points="545.18 208.4 543.79 205.15 531.89 205.15 533.18 208.4 545.18 208.4"/><path class="cls-2" d="M531,208.4l-1.25-3.25s-4.35.24-4.78,3.25Z"/><ellipse class="cls-4" cx="603.48" cy="203.38" rx="0.95" ry="2.7"/><ellipse class="cls-4" cx="603.48" cy="173.13" rx="0.95" ry="2.7"/><rect class="cls-5" x="475.47" y="181.29" width="19.51" height="1.07"/><rect class="cls-5" x="482.12" y="186.82" width="12.86" height="1.07"/><rect class="cls-5" x="478.88" y="192.35" width="16.1" height="1.07"/><path class="cls-3" d="M1224.05,166.65a6.37,6.37,0,0,1,4.48-2.32c3.19-.3,59.83,0,59.83,0v-3.64s1.67-1.67,3.19,3.19c0,0,34.93-.91,35.84,4.25v38.45c-.91,5.16-35.84,4.25-35.84,4.25-1.52,4.86-3.19,3.19-3.19,3.19v-3.65s-56.64.31-59.83,0a6.34,6.34,0,0,1-4.48-2.32Z"/><path class="cls-2" d="M1232.11,172.49s-2.79,2.24-2.79,14.86,2.79,14.86,2.79,14.86l12-.81V173.3Z"/><path class="cls-2" d="M1293.67,168.08l-10.12,4.41v14.86h14.26C1298.33,168.86,1293.67,168.08,1293.67,168.08Z"/><path class="cls-2" d="M1283.55,187.35v14.83l10.12,4.41s4.66-.79,4.14-19.24Z"/><path class="cls-2" d="M1270.74,167.17l-1.2,3s12.63,1.73,18.19-3Z"/><polygon class="cls-2" points="1267.02 167.17 1265.63 170.38 1253.73 170.38 1255.02 167.17 1267.02 167.17"/><path class="cls-2" d="M1252.79,167.17l-1.25,3.21s-4.34-.23-4.78-3.21Z"/><path class="cls-2" d="M1270.52,207.33l-1.2-3s12.63-1.75,18.19,3Z"/><polygon class="cls-2" points="1266.8 207.33 1265.41 204.08 1253.51 204.08 1254.8 207.33 1266.8 207.33"/><path class="cls-2" d="M1252.57,207.33l-1.25-3.25s-4.35.24-4.78,3.25Z"/><ellipse class="cls-4" cx="1325.1" cy="202.3" rx="0.95" ry="2.7"/><ellipse class="cls-4" cx="1325.1" cy="172.06" rx="0.95" ry="2.7"/><rect class="cls-5" x="1197.09" y="180.22" width="19.51" height="1.07"/><rect class="cls-5" x="1203.74" y="185.75" width="12.86" height="1.07"/><rect class="cls-5" x="1200.5" y="191.28" width="16.1" height="1.07"/></svg>
