<svg id="Layer_1" data-name="Layer 1" xmlns="http://www.w3.org/2000/svg" width="14312.31" height="276.98" viewBox="0 0 14312.31 276.98"><defs><style>.cls-1{fill:#373d46;}.cls-2{fill:#fff;}.cls-3{fill:#bcbec0;}.cls-4{fill:#231f20;}.cls-5{fill:#eaeaea;opacity:0.61;}</style></defs><title>road_3</title><rect class="cls-1" y="49.98" width="14312.31" height="177.02"/><rect class="cls-1" y="233.24" width="14312.31" height="12.33"/><rect class="cls-1" y="31.41" width="14312.31" height="12.33"/><rect class="cls-2" x="6085.28" y="133.56" width="58.19" height="9.86"/><rect class="cls-2" x="6200.75" y="133.56" width="58.19" height="9.86"/><rect class="cls-2" x="6316.21" y="133.56" width="58.19" height="9.86"/><rect class="cls-2" x="6431.67" y="133.56" width="58.19" height="9.86"/><rect class="cls-2" x="6547.14" y="133.56" width="58.19" height="9.86"/><rect class="cls-2" x="6662.6" y="133.56" width="58.19" height="9.86"/><rect class="cls-2" x="6778.07" y="133.56" width="58.19" height="9.86"/><rect class="cls-2" x="6893.53" y="133.56" width="58.19" height="9.86"/><rect class="cls-2" x="7008.99" y="133.56" width="58.19" height="9.86"/><rect class="cls-2" x="7124.46" y="133.56" width="58.19" height="9.86"/><rect class="cls-2" x="7239.92" y="133.56" width="58.19" height="9.86"/><rect class="cls-2" x="7355.38" y="133.56" width="58.19" height="9.86"/><rect class="cls-2" x="7470.85" y="133.56" width="58.19" height="9.86"/><rect class="cls-2" x="7586.31" y="133.56" width="58.19" height="9.86"/><rect class="cls-2" x="7701.78" y="133.56" width="58.19" height="9.86"/><rect class="cls-2" x="7817.24" y="133.56" width="58.19" height="9.86"/><rect class="cls-2" x="7932.7" y="133.56" width="58.19" height="9.86"/><rect class="cls-2" x="8048.17" y="133.56" width="58.19" height="9.86"/><rect class="cls-2" x="8163.63" y="133.56" width="58.19" height="9.86"/><rect class="cls-2" x="8279.09" y="133.56" width="58.19" height="9.86"/><rect class="cls-2" x="8394.56" y="133.56" width="58.19" height="9.86"/><rect class="cls-2" x="8510.02" y="133.56" width="58.19" height="9.86"/><rect class="cls-2" x="8625.49" y="133.56" width="58.19" height="9.86"/><rect class="cls-2" x="8740.95" y="133.56" width="58.19" height="9.86"/><rect class="cls-2" x="8856.41" y="133.56" width="58.19" height="9.86"/><rect class="cls-2" x="8971.88" y="133.56" width="58.19" height="9.86"/><rect class="cls-2" x="9087.34" y="133.56" width="58.19" height="9.86"/><rect class="cls-2" x="9202.81" y="133.56" width="58.19" height="9.86"/><rect class="cls-2" x="9318.27" y="133.56" width="58.19" height="9.86"/><rect class="cls-2" x="9433.73" y="133.56" width="58.19" height="9.86"/><rect class="cls-2" x="9549.2" y="133.56" width="58.19" height="9.86"/><rect class="cls-2" x="9664.66" y="133.56" width="58.19" height="9.86"/><rect class="cls-2" x="9780.12" y="133.56" width="58.19" height="9.86"/><rect class="cls-2" x="9895.59" y="133.56" width="58.19" height="9.86"/><rect class="cls-2" x="10011.05" y="133.56" width="58.19" height="9.86"/><rect class="cls-2" x="10126.52" y="133.56" width="58.19" height="9.86"/><rect class="cls-2" x="10241.98" y="133.56" width="58.19" height="9.86"/><rect class="cls-2" x="10357.44" y="133.56" width="58.19" height="9.86"/><rect class="cls-2" x="10472.91" y="133.56" width="58.19" height="9.86"/><rect class="cls-2" x="10588.37" y="133.56" width="58.19" height="9.86"/><rect class="cls-2" x="10703.83" y="133.56" width="58.19" height="9.86"/><rect class="cls-2" x="10819.3" y="133.56" width="58.19" height="9.86"/><rect class="cls-2" x="10934.76" y="133.56" width="58.19" height="9.86"/><rect class="cls-2" x="11050.23" y="133.56" width="58.19" height="9.86"/><rect class="cls-2" x="11165.69" y="133.56" width="58.19" height="9.86"/><rect class="cls-2" x="11281.15" y="133.56" width="58.19" height="9.86"/><rect class="cls-2" x="11396.62" y="133.56" width="58.19" height="9.86"/><rect class="cls-2" x="11512.08" y="133.56" width="58.19" height="9.86"/><rect class="cls-2" x="11627.55" y="133.56" width="58.19" height="9.86"/><rect class="cls-2" x="11743.01" y="133.56" width="58.19" height="9.86"/><rect class="cls-2" x="11858.47" y="133.56" width="58.19" height="9.86"/><rect class="cls-2" x="11973.94" y="133.56" width="58.19" height="9.86"/><rect class="cls-2" x="12089.4" y="133.56" width="58.19" height="9.86"/><rect class="cls-2" x="12204.86" y="133.56" width="58.19" height="9.86"/><rect class="cls-2" x="12320.33" y="133.56" width="58.19" height="9.86"/><rect class="cls-2" x="12435.79" y="133.56" width="58.19" height="9.86"/><rect class="cls-2" x="12551.26" y="133.56" width="58.19" height="9.86"/><rect class="cls-2" x="12666.72" y="133.56" width="58.19" height="9.86"/><rect class="cls-2" x="12782.18" y="133.56" width="58.19" height="9.86"/><rect class="cls-2" x="12897.65" y="133.56" width="58.19" height="9.86"/><rect class="cls-2" x="13013.11" y="133.56" width="58.19" height="9.86"/><rect class="cls-2" x="13128.57" y="133.56" width="58.19" height="9.86"/><rect class="cls-2" x="13244.04" y="133.56" width="58.19" height="9.86"/><rect class="cls-2" x="13359.5" y="133.56" width="58.19" height="9.86"/><rect class="cls-2" x="13474.97" y="133.56" width="58.19" height="9.86"/><rect class="cls-2" x="13590.43" y="133.56" width="58.19" height="9.86"/><rect class="cls-2" x="13705.89" y="133.56" width="58.19" height="9.86"/><rect class="cls-2" x="13821.36" y="133.56" width="58.19" height="9.86"/><rect class="cls-2" x="13936.82" y="133.56" width="58.19" height="9.86"/><rect class="cls-2" x="14052.28" y="133.56" width="58.19" height="9.86"/><rect class="cls-2" x="14167.75" y="133.56" width="58.19" height="9.86"/><rect class="cls-2" x="14283.21" y="133.56" width="29.1" height="9.86"/><path class="cls-3" d="M6154.31,167.73a6.31,6.31,0,0,1,4.48-2.33c3.19-.3,59.83,0,59.83,0v-3.64s1.67-1.67,3.19,3.19c0,0,34.93-.91,35.84,4.25v38.45c-.91,5.16-35.84,4.25-35.84,4.25-1.52,4.86-3.19,3.19-3.19,3.19v-3.65s-56.64.31-59.83,0a6.31,6.31,0,0,1-4.48-2.32Z"/><path class="cls-2" d="M6162.36,173.57s-2.78,2.23-2.78,14.85,2.78,14.86,2.78,14.86l12-.81v-28.1Z"/><path class="cls-2" d="M6223.93,169.15l-10.13,4.42v14.85h14.26C6228.59,169.94,6223.93,169.15,6223.93,169.15Z"/><path class="cls-2" d="M6213.8,188.42v14.83l10.13,4.41s4.66-.79,4.13-19.24Z"/><path class="cls-2" d="M6201,168.24l-1.2,3s12.63,1.73,18.19-3Z"/><polygon class="cls-2" points="6197.28 168.24 6195.89 171.46 6183.99 171.46 6185.28 168.24 6197.28 168.24"/><path class="cls-2" d="M6183.05,168.24l-1.25,3.22s-4.34-.24-4.78-3.22Z"/><path class="cls-2" d="M6200.78,208.4l-1.21-3s12.63-1.75,18.2,3Z"/><polygon class="cls-2" points="6197.06 208.4 6195.67 205.15 6183.77 205.15 6185.06 208.4 6197.06 208.4"/><path class="cls-2" d="M6182.82,208.4l-1.24-3.25s-4.35.24-4.79,3.25Z"/><ellipse class="cls-4" cx="6255.36" cy="203.38" rx="0.95" ry="2.7"/><ellipse class="cls-4" cx="6255.36" cy="173.13" rx="0.95" ry="2.7"/><rect class="cls-5" x="6127.34" y="181.29" width="19.51" height="1.07"/><rect class="cls-5" x="6134" y="186.82" width="12.86" height="1.07"/><rect class="cls-5" x="6130.76" y="192.35" width="16.1" height="1.07"/><path class="cls-3" d="M6501.35,167.73a6.28,6.28,0,0,1,4.48-2.33c3.18-.3,59.83,0,59.83,0v-3.64s1.67-1.67,3.19,3.19c0,0,34.93-.91,35.84,4.25v38.45c-.91,5.16-35.84,4.25-35.84,4.25-1.52,4.86-3.19,3.19-3.19,3.19v-3.65s-56.65.31-59.83,0a6.28,6.28,0,0,1-4.48-2.32Z"/><path class="cls-2" d="M6509.4,173.57s-2.78,2.23-2.78,14.85,2.78,14.86,2.78,14.86l12-.81v-28.1Z"/><path class="cls-2" d="M6571,169.15l-10.12,4.42v14.85h14.26C6575.63,169.94,6571,169.15,6571,169.15Z"/><path class="cls-2" d="M6560.84,188.42v14.83l10.12,4.41s4.67-.79,4.14-19.24Z"/><path class="cls-2" d="M6548,168.24l-1.2,3s12.63,1.73,18.19-3Z"/><polygon class="cls-2" points="6544.32 168.24 6542.93 171.46 6531.03 171.46 6532.32 168.24 6544.32 168.24"/><path class="cls-2" d="M6530.09,168.24l-1.25,3.22s-4.35-.24-4.78-3.22Z"/><path class="cls-2" d="M6547.82,208.4l-1.21-3s12.63-1.75,18.2,3Z"/><polygon class="cls-2" points="6544.09 208.4 6542.7 205.15 6530.8 205.15 6532.1 208.4 6544.09 208.4"/><path class="cls-2" d="M6529.86,208.4l-1.25-3.25s-4.34.24-4.78,3.25Z"/><ellipse class="cls-4" cx="6602.4" cy="203.38" rx="0.95" ry="2.7"/><ellipse class="cls-4" cx="6602.4" cy="173.13" rx="0.95" ry="2.7"/><rect class="cls-5" x="6474.38" y="181.29" width="19.51" height="1.07"/><rect class="cls-5" x="6481.03" y="186.82" width="12.86" height="1.07"/><rect class="cls-5" x="6477.8" y="192.35" width="16.1" height="1.07"/><path class="cls-3" d="M7223,166.65a6.32,6.32,0,0,1,4.47-2.32c3.19-.3,59.84,0,59.84,0v-3.64s1.67-1.67,3.19,3.19c0,0,34.93-.91,35.84,4.25v38.45c-.91,5.16-35.84,4.25-35.84,4.25-1.52,4.86-3.19,3.19-3.19,3.19v-3.65s-56.65.31-59.84,0a6.28,6.28,0,0,1-4.47-2.32Z"/><path class="cls-2" d="M7231,172.49s-2.78,2.24-2.78,14.86,2.78,14.86,2.78,14.86l12-.81V173.3Z"/><path class="cls-2" d="M7292.58,168.08l-10.12,4.41v14.86h14.26C7297.25,168.86,7292.58,168.08,7292.58,168.08Z"/><path class="cls-2" d="M7282.46,187.35v14.83l10.12,4.41s4.67-.79,4.14-19.24Z"/><path class="cls-2" d="M7269.66,167.17l-1.2,3s12.63,1.73,18.19-3Z"/><polygon class="cls-2" points="7265.94 167.17 7264.55 170.38 7252.65 170.38 7253.94 167.17 7265.94 167.17"/><path class="cls-2" d="M7251.71,167.17l-1.25,3.21s-4.35-.23-4.79-3.21Z"/><path class="cls-2" d="M7269.43,207.33l-1.2-3s12.63-1.75,18.19,3Z"/><polygon class="cls-2" points="7265.71 207.33 7264.32 204.08 7252.42 204.08 7253.71 207.33 7265.71 207.33"/><path class="cls-2" d="M7251.48,207.33l-1.25-3.25s-4.34.24-4.78,3.25Z"/><ellipse class="cls-4" cx="7324.02" cy="202.3" rx="0.95" ry="2.7"/><ellipse class="cls-4" cx="7324.02" cy="172.06" rx="0.95" ry="2.7"/><rect class="cls-5" x="7196" y="180.22" width="19.51" height="1.07"/><rect class="cls-5" x="7202.65" y="185.75" width="12.86" height="1.07"/><rect class="cls-5" x="7199.41" y="191.28" width="16.1" height="1.07"/><path class="cls-3" d="M7757.84,166.65a6.32,6.32,0,0,1,4.47-2.32c3.19-.3,59.84,0,59.84,0v-3.64s1.67-1.67,3.19,3.19c0,0,34.93-.91,35.84,4.25v38.45c-.91,5.16-35.84,4.25-35.84,4.25-1.52,4.86-3.19,3.19-3.19,3.19v-3.65s-56.65.31-59.84,0a6.28,6.28,0,0,1-4.47-2.32Z"/><path class="cls-2" d="M7765.89,172.49s-2.78,2.24-2.78,14.86,2.78,14.86,2.78,14.86l12-.81V173.3Z"/><path class="cls-2" d="M7827.45,168.08l-10.12,4.41v14.86h14.26C7832.12,168.86,7827.45,168.08,7827.45,168.08Z"/><path class="cls-2" d="M7817.33,187.35v14.83l10.12,4.41s4.67-.79,4.14-19.24Z"/><path class="cls-2" d="M7804.53,167.17l-1.2,3s12.63,1.73,18.19-3Z"/><polygon class="cls-2" points="7800.81 167.17 7799.42 170.38 7787.52 170.38 7788.81 167.17 7800.81 167.17"/><path class="cls-2" d="M7786.58,167.17l-1.25,3.21s-4.35-.23-4.78-3.21Z"/><path class="cls-2" d="M7804.3,207.33l-1.2-3s12.63-1.75,18.2,3Z"/><polygon class="cls-2" points="7800.58 207.33 7799.19 204.08 7787.29 204.08 7788.59 207.33 7800.58 207.33"/><path class="cls-2" d="M7786.35,207.33l-1.25-3.25s-4.34.24-4.78,3.25Z"/><ellipse class="cls-4" cx="7858.89" cy="202.3" rx="0.95" ry="2.7"/><ellipse class="cls-4" cx="7858.89" cy="172.06" rx="0.95" ry="2.7"/><rect class="cls-5" x="7730.87" y="180.22" width="19.51" height="1.07"/><rect class="cls-5" x="7737.52" y="185.75" width="12.86" height="1.07"/><rect class="cls-5" x="7734.29" y="191.28" width="16.1" height="1.07"/><path class="cls-3" d="M8731.86,166.65a6.32,6.32,0,0,1,4.48-2.32c3.18-.3,59.83,0,59.83,0v-3.64s1.67-1.67,3.19,3.19c0,0,34.93-.91,35.84,4.25v38.45c-.91,5.16-35.84,4.25-35.84,4.25-1.52,4.86-3.19,3.19-3.19,3.19v-3.65s-56.65.31-59.83,0a6.28,6.28,0,0,1-4.48-2.32Z"/><path class="cls-2" d="M8739.91,172.49s-2.78,2.24-2.78,14.86,2.78,14.86,2.78,14.86l12-.81V173.3Z"/><path class="cls-2" d="M8801.48,168.08l-10.13,4.41v14.86h14.26C8806.14,168.86,8801.48,168.08,8801.48,168.08Z"/><path class="cls-2" d="M8791.35,187.35v14.83l10.13,4.41s4.66-.79,4.13-19.24Z"/><path class="cls-2" d="M8778.55,167.17l-1.2,3s12.63,1.73,18.19-3Z"/><polygon class="cls-2" points="8774.83 167.17 8773.44 170.38 8761.54 170.38 8762.83 167.17 8774.83 167.17"/><path class="cls-2" d="M8760.6,167.17l-1.25,3.21s-4.35-.23-4.78-3.21Z"/><path class="cls-2" d="M8778.33,207.33l-1.21-3s12.63-1.75,18.2,3Z"/><polygon class="cls-2" points="8774.6 207.33 8773.22 204.08 8761.32 204.08 8762.61 207.33 8774.6 207.33"/><path class="cls-2" d="M8760.37,207.33l-1.24-3.25s-4.35.24-4.79,3.25Z"/><ellipse class="cls-4" cx="8832.91" cy="202.3" rx="0.95" ry="2.7"/><ellipse class="cls-4" cx="8832.91" cy="172.06" rx="0.95" ry="2.7"/><rect class="cls-5" x="8704.89" y="180.22" width="19.51" height="1.07"/><rect class="cls-5" x="8711.54" y="185.75" width="12.86" height="1.07"/><rect class="cls-5" x="8708.31" y="191.28" width="16.1" height="1.07"/><rect class="cls-2" x="3095.72" y="133.56" width="58.19" height="9.86"/><rect class="cls-2" x="3211.19" y="133.56" width="58.19" height="9.86"/><rect class="cls-2" x="3326.65" y="133.56" width="58.19" height="9.86"/><rect class="cls-2" x="3442.12" y="133.56" width="58.19" height="9.86"/><rect class="cls-2" x="3557.58" y="133.56" width="58.19" height="9.86"/><rect class="cls-2" x="3673.04" y="133.56" width="58.19" height="9.86"/><rect class="cls-2" x="3788.51" y="133.56" width="58.19" height="9.86"/><rect class="cls-2" x="3903.97" y="133.56" width="58.19" height="9.86"/><rect class="cls-2" x="4019.43" y="133.56" width="58.19" height="9.86"/><rect class="cls-2" x="4134.9" y="133.56" width="58.19" height="9.86"/><rect class="cls-2" x="4250.36" y="133.56" width="58.19" height="9.86"/><rect class="cls-2" x="4365.83" y="133.56" width="58.19" height="9.86"/><rect class="cls-2" x="4481.29" y="133.56" width="58.19" height="9.86"/><rect class="cls-2" x="4596.75" y="133.56" width="58.19" height="9.86"/><rect class="cls-2" x="4712.22" y="133.56" width="58.19" height="9.86"/><rect class="cls-2" x="4827.68" y="133.56" width="58.19" height="9.86"/><rect class="cls-2" x="4943.15" y="133.56" width="58.19" height="9.86"/><rect class="cls-2" x="5058.61" y="133.56" width="58.19" height="9.86"/><rect class="cls-2" x="5174.07" y="133.56" width="58.19" height="9.86"/><rect class="cls-2" x="5289.54" y="133.56" width="58.19" height="9.86"/><rect class="cls-2" x="5405" y="133.56" width="58.19" height="9.86"/><rect class="cls-2" x="5520.46" y="133.56" width="58.19" height="9.86"/><rect class="cls-2" x="5635.93" y="133.56" width="58.19" height="9.86"/><rect class="cls-2" x="5751.39" y="133.56" width="58.19" height="9.86"/><rect class="cls-2" x="5866.86" y="133.56" width="58.19" height="9.86"/><rect class="cls-2" x="5982.32" y="133.56" width="58.19" height="9.86"/><path class="cls-3" d="M3164.75,167.73a6.31,6.31,0,0,1,4.48-2.33c3.19-.3,59.83,0,59.83,0v-3.64s1.67-1.67,3.19,3.19c0,0,34.93-.91,35.84,4.25v38.45c-.91,5.16-35.84,4.25-35.84,4.25-1.52,4.86-3.19,3.19-3.19,3.19v-3.65s-56.64.31-59.83,0a6.31,6.31,0,0,1-4.48-2.32Z"/><path class="cls-2" d="M3172.81,173.57s-2.79,2.23-2.79,14.85,2.79,14.86,2.79,14.86l12-.81v-28.1Z"/><path class="cls-2" d="M3234.37,169.15l-10.12,4.42v14.85h14.26C3239,169.94,3234.37,169.15,3234.37,169.15Z"/><path class="cls-2" d="M3224.25,188.42v14.83l10.12,4.41s4.66-.79,4.14-19.24Z"/><path class="cls-2" d="M3211.44,168.24l-1.2,3s12.63,1.73,18.19-3Z"/><polygon class="cls-2" points="3207.72 168.24 3206.33 171.46 3194.43 171.46 3195.72 168.24 3207.72 168.24"/><path class="cls-2" d="M3193.49,168.24l-1.25,3.22s-4.34-.24-4.78-3.22Z"/><path class="cls-2" d="M3211.22,208.4l-1.2-3s12.63-1.75,18.19,3Z"/><polygon class="cls-2" points="3207.5 208.4 3206.11 205.15 3194.21 205.15 3195.5 208.4 3207.5 208.4"/><path class="cls-2" d="M3193.27,208.4l-1.25-3.25s-4.35.24-4.79,3.25Z"/><ellipse class="cls-4" cx="3265.8" cy="203.38" rx="0.95" ry="2.7"/><ellipse class="cls-4" cx="3265.8" cy="173.13" rx="0.95" ry="2.7"/><rect class="cls-5" x="3137.79" y="181.29" width="19.51" height="1.07"/><rect class="cls-5" x="3144.44" y="186.82" width="12.86" height="1.07"/><rect class="cls-5" x="3141.2" y="192.35" width="16.1" height="1.07"/><path class="cls-3" d="M3511.79,167.73a6.31,6.31,0,0,1,4.48-2.33c3.19-.3,59.83,0,59.83,0v-3.64s1.67-1.67,3.19,3.19c0,0,34.93-.91,35.84,4.25v38.45c-.91,5.16-35.84,4.25-35.84,4.25-1.52,4.86-3.19,3.19-3.19,3.19v-3.65s-56.64.31-59.83,0a6.31,6.31,0,0,1-4.48-2.32Z"/><path class="cls-2" d="M3519.84,173.57s-2.78,2.23-2.78,14.85,2.78,14.86,2.78,14.86l12-.81v-28.1Z"/><path class="cls-2" d="M3581.41,169.15l-10.13,4.42v14.85h14.26C3586.07,169.94,3581.41,169.15,3581.41,169.15Z"/><path class="cls-2" d="M3571.28,188.42v14.83l10.13,4.41s4.66-.79,4.13-19.24Z"/><path class="cls-2" d="M3558.48,168.24l-1.2,3s12.63,1.73,18.19-3Z"/><polygon class="cls-2" points="3554.76 168.24 3553.37 171.46 3541.47 171.46 3542.76 168.24 3554.76 168.24"/><path class="cls-2" d="M3540.53,168.24l-1.25,3.22s-4.34-.24-4.78-3.22Z"/><path class="cls-2" d="M3558.26,208.4l-1.21-3s12.63-1.75,18.2,3Z"/><polygon class="cls-2" points="3554.53 208.4 3553.15 205.15 3541.25 205.15 3542.54 208.4 3554.53 208.4"/><path class="cls-2" d="M3540.3,208.4l-1.24-3.25s-4.35.24-4.79,3.25Z"/><ellipse class="cls-4" cx="3612.84" cy="203.38" rx="0.95" ry="2.7"/><ellipse class="cls-4" cx="3612.84" cy="173.13" rx="0.95" ry="2.7"/><rect class="cls-5" x="3484.82" y="181.29" width="19.51" height="1.07"/><rect class="cls-5" x="3491.48" y="186.82" width="12.86" height="1.07"/><rect class="cls-5" x="3488.24" y="192.35" width="16.1" height="1.07"/><path class="cls-3" d="M4233.41,166.65a6.32,6.32,0,0,1,4.48-2.32c3.18-.3,59.83,0,59.83,0v-3.64s1.67-1.67,3.19,3.19c0,0,34.93-.91,35.84,4.25v38.45c-.91,5.16-35.84,4.25-35.84,4.25-1.52,4.86-3.19,3.19-3.19,3.19v-3.65s-56.65.31-59.83,0a6.28,6.28,0,0,1-4.48-2.32Z"/><path class="cls-2" d="M4241.46,172.49s-2.78,2.24-2.78,14.86,2.78,14.86,2.78,14.86l12-.81V173.3Z"/><path class="cls-2" d="M4303,168.08l-10.13,4.41v14.86h14.26C4307.69,168.86,4303,168.08,4303,168.08Z"/><path class="cls-2" d="M4292.9,187.35v14.83l10.13,4.41s4.66-.79,4.13-19.24Z"/><path class="cls-2" d="M4280.1,167.17l-1.2,3s12.63,1.73,18.19-3Z"/><polygon class="cls-2" points="4276.38 167.17 4274.99 170.38 4263.09 170.38 4264.38 167.17 4276.38 167.17"/><path class="cls-2" d="M4262.15,167.17l-1.25,3.21s-4.35-.23-4.78-3.21Z"/><path class="cls-2" d="M4279.88,207.33l-1.21-3s12.63-1.75,18.2,3Z"/><polygon class="cls-2" points="4276.15 207.33 4274.77 204.08 4262.86 204.08 4264.16 207.33 4276.15 207.33"/><path class="cls-2" d="M4261.92,207.33l-1.24-3.25s-4.35.24-4.79,3.25Z"/><ellipse class="cls-4" cx="4334.46" cy="202.3" rx="0.95" ry="2.7"/><ellipse class="cls-4" cx="4334.46" cy="172.06" rx="0.95" ry="2.7"/><rect class="cls-5" x="4206.44" y="180.22" width="19.51" height="1.07"/><rect class="cls-5" x="4213.09" y="185.75" width="12.86" height="1.07"/><rect class="cls-5" x="4209.86" y="191.28" width="16.1" height="1.07"/><path class="cls-3" d="M4768.28,166.65a6.35,6.35,0,0,1,4.48-2.32c3.19-.3,59.83,0,59.83,0v-3.64s1.67-1.67,3.19,3.19c0,0,34.93-.91,35.84,4.25v38.45c-.91,5.16-35.84,4.25-35.84,4.25-1.52,4.86-3.19,3.19-3.19,3.19v-3.65s-56.64.31-59.83,0a6.31,6.31,0,0,1-4.48-2.32Z"/><path class="cls-2" d="M4776.33,172.49s-2.78,2.24-2.78,14.86,2.78,14.86,2.78,14.86l12-.81V173.3Z"/><path class="cls-2" d="M4837.9,168.08l-10.13,4.41v14.86H4842C4842.56,168.86,4837.9,168.08,4837.9,168.08Z"/><path class="cls-2" d="M4827.77,187.35v14.83l10.13,4.41s4.66-.79,4.13-19.24Z"/><path class="cls-2" d="M4815,167.17l-1.2,3s12.63,1.73,18.19-3Z"/><polygon class="cls-2" points="4811.25 167.17 4809.86 170.38 4797.96 170.38 4799.25 167.17 4811.25 167.17"/><path class="cls-2" d="M4797,167.17l-1.25,3.21s-4.34-.23-4.78-3.21Z"/><path class="cls-2" d="M4814.75,207.33l-1.21-3s12.63-1.75,18.2,3Z"/><polygon class="cls-2" points="4811.02 207.33 4809.64 204.08 4797.74 204.08 4799.03 207.33 4811.02 207.33"/><path class="cls-2" d="M4796.79,207.33l-1.24-3.25s-4.35.24-4.79,3.25Z"/><ellipse class="cls-4" cx="4869.33" cy="202.3" rx="0.95" ry="2.7"/><ellipse class="cls-4" cx="4869.33" cy="172.06" rx="0.95" ry="2.7"/><rect class="cls-5" x="4741.31" y="180.22" width="19.51" height="1.07"/><rect class="cls-5" x="4747.96" y="185.75" width="12.86" height="1.07"/><rect class="cls-5" x="4744.73" y="191.28" width="16.1" height="1.07"/><rect class="cls-2" x="1256.91" y="133.56" width="58.19" height="9.86"/><rect class="cls-2" x="1372.37" y="133.56" width="58.19" height="9.86"/><rect class="cls-2" x="1487.83" y="133.56" width="58.19" height="9.86"/><rect class="cls-2" x="1603.3" y="133.56" width="58.19" height="9.86"/><rect class="cls-2" x="1718.76" y="133.56" width="58.19" height="9.86"/><rect class="cls-2" x="1834.22" y="133.56" width="58.19" height="9.86"/><rect class="cls-2" x="1949.69" y="133.56" width="58.19" height="9.86"/><rect class="cls-2" x="2065.15" y="133.56" width="58.19" height="9.86"/><rect class="cls-2" x="2180.62" y="133.56" width="58.19" height="9.86"/><rect class="cls-2" x="2296.08" y="133.56" width="58.19" height="9.86"/><rect class="cls-2" x="2411.54" y="133.56" width="58.19" height="9.86"/><rect class="cls-2" x="2527.01" y="133.56" width="58.19" height="9.86"/><rect class="cls-2" x="2642.47" y="133.56" width="58.19" height="9.86"/><rect class="cls-2" x="2757.93" y="133.56" width="58.19" height="9.86"/><rect class="cls-2" x="2873.4" y="133.56" width="58.19" height="9.86"/><rect class="cls-2" x="2988.86" y="133.56" width="58.19" height="9.86"/><path class="cls-3" d="M1325.93,167.73a6.33,6.33,0,0,1,4.48-2.33c3.19-.3,59.83,0,59.83,0v-3.64s1.67-1.67,3.19,3.19c0,0,34.93-.91,35.84,4.25v38.45c-.91,5.16-35.84,4.25-35.84,4.25-1.52,4.86-3.19,3.19-3.19,3.19v-3.65s-56.64.31-59.83,0a6.34,6.34,0,0,1-4.48-2.32Z"/><path class="cls-2" d="M1334,173.57s-2.79,2.23-2.79,14.85,2.79,14.86,2.79,14.86l12-.81v-28.1Z"/><path class="cls-2" d="M1395.55,169.15l-10.12,4.42v14.85h14.26C1400.21,169.94,1395.55,169.15,1395.55,169.15Z"/><path class="cls-2" d="M1385.43,188.42v14.83l10.12,4.41s4.66-.79,4.14-19.24Z"/><path class="cls-2" d="M1372.62,168.24l-1.2,3s12.63,1.73,18.19-3Z"/><polygon class="cls-2" points="1368.9 168.24 1367.51 171.46 1355.61 171.46 1356.9 168.24 1368.9 168.24"/><path class="cls-2" d="M1354.67,168.24l-1.25,3.22s-4.34-.24-4.78-3.22Z"/><path class="cls-2" d="M1372.4,208.4l-1.2-3s12.63-1.75,18.19,3Z"/><polygon class="cls-2" points="1368.68 208.4 1367.29 205.15 1355.39 205.15 1356.68 208.4 1368.68 208.4"/><path class="cls-2" d="M1354.45,208.4l-1.25-3.25s-4.35.24-4.78,3.25Z"/><ellipse class="cls-4" cx="1426.98" cy="203.38" rx="0.95" ry="2.7"/><ellipse class="cls-4" cx="1426.98" cy="173.13" rx="0.95" ry="2.7"/><rect class="cls-5" x="1298.97" y="181.29" width="19.51" height="1.07"/><rect class="cls-5" x="1305.62" y="186.82" width="12.86" height="1.07"/><rect class="cls-5" x="1302.38" y="192.35" width="16.1" height="1.07"/><path class="cls-3" d="M1673,167.73a6.31,6.31,0,0,1,4.48-2.33c3.19-.3,59.83,0,59.83,0v-3.64s1.67-1.67,3.19,3.19c0,0,34.93-.91,35.84,4.25v38.45c-.91,5.16-35.84,4.25-35.84,4.25-1.52,4.86-3.19,3.19-3.19,3.19v-3.65s-56.64.31-59.83,0a6.31,6.31,0,0,1-4.48-2.32Z"/><path class="cls-2" d="M1681,173.57s-2.78,2.23-2.78,14.85,2.78,14.86,2.78,14.86l12-.81v-28.1Z"/><path class="cls-2" d="M1742.59,169.15l-10.13,4.42v14.85h14.26C1747.25,169.94,1742.59,169.15,1742.59,169.15Z"/><path class="cls-2" d="M1732.46,188.42v14.83l10.13,4.41s4.66-.79,4.13-19.24Z"/><path class="cls-2" d="M1719.66,168.24l-1.2,3s12.63,1.73,18.19-3Z"/><polygon class="cls-2" points="1715.94 168.24 1714.55 171.46 1702.65 171.46 1703.94 168.24 1715.94 168.24"/><path class="cls-2" d="M1701.71,168.24l-1.25,3.22s-4.34-.24-4.78-3.22Z"/><path class="cls-2" d="M1719.44,208.4l-1.21-3s12.63-1.75,18.2,3Z"/><polygon class="cls-2" points="1715.72 208.4 1714.33 205.15 1702.43 205.15 1703.72 208.4 1715.72 208.4"/><path class="cls-2" d="M1701.48,208.4l-1.24-3.25s-4.35.24-4.79,3.25Z"/><ellipse class="cls-4" cx="1774.02" cy="203.38" rx="0.95" ry="2.7"/><ellipse class="cls-4" cx="1774.02" cy="173.13" rx="0.95" ry="2.7"/><rect class="cls-5" x="1646" y="181.29" width="19.51" height="1.07"/><rect class="cls-5" x="1652.66" y="186.82" width="12.86" height="1.07"/><rect class="cls-5" x="1649.42" y="192.35" width="16.1" height="1.07"/><path class="cls-3" d="M2394.59,166.65a6.35,6.35,0,0,1,4.48-2.32c3.19-.3,59.83,0,59.83,0v-3.64s1.67-1.67,3.19,3.19c0,0,34.93-.91,35.84,4.25v38.45c-.91,5.16-35.84,4.25-35.84,4.25-1.52,4.86-3.19,3.19-3.19,3.19v-3.65s-56.64.31-59.83,0a6.31,6.31,0,0,1-4.48-2.32Z"/><path class="cls-2" d="M2402.64,172.49s-2.78,2.24-2.78,14.86,2.78,14.86,2.78,14.86l12-.81V173.3Z"/><path class="cls-2" d="M2464.21,168.08l-10.13,4.41v14.86h14.26C2468.87,168.86,2464.21,168.08,2464.21,168.08Z"/><path class="cls-2" d="M2454.08,187.35v14.83l10.13,4.41s4.66-.79,4.13-19.24Z"/><path class="cls-2" d="M2441.28,167.17l-1.2,3s12.63,1.73,18.19-3Z"/><polygon class="cls-2" points="2437.56 167.17 2436.17 170.38 2424.27 170.38 2425.56 167.17 2437.56 167.17"/><path class="cls-2" d="M2423.33,167.17l-1.25,3.21s-4.34-.23-4.78-3.21Z"/><path class="cls-2" d="M2441.06,207.33l-1.21-3s12.63-1.75,18.2,3Z"/><polygon class="cls-2" points="2437.34 207.33 2435.95 204.08 2424.05 204.08 2425.34 207.33 2437.34 207.33"/><path class="cls-2" d="M2423.1,207.33l-1.24-3.25s-4.35.24-4.79,3.25Z"/><ellipse class="cls-4" cx="2495.64" cy="202.3" rx="0.95" ry="2.7"/><ellipse class="cls-4" cx="2495.64" cy="172.06" rx="0.95" ry="2.7"/><rect class="cls-5" x="2367.62" y="180.22" width="19.51" height="1.07"/><rect class="cls-5" x="2374.27" y="185.75" width="12.86" height="1.07"/><rect class="cls-5" x="2371.04" y="191.28" width="16.1" height="1.07"/><rect class="cls-2" x="-3.18" y="133.56" width="58.19" height="9.86"/><rect class="cls-2" x="112.29" y="133.56" width="58.19" height="9.86"/><rect class="cls-2" x="227.75" y="133.56" width="58.19" height="9.86"/><rect class="cls-2" x="343.22" y="133.56" width="58.19" height="9.86"/><rect class="cls-2" x="458.68" y="133.56" width="58.19" height="9.86"/><rect class="cls-2" x="574.14" y="133.56" width="58.19" height="9.86"/><rect class="cls-2" x="689.61" y="133.56" width="58.19" height="9.86"/><rect class="cls-2" x="805.07" y="133.56" width="58.19" height="9.86"/><rect class="cls-2" x="920.53" y="133.56" width="58.19" height="9.86"/><rect class="cls-2" x="1036" y="133.56" width="58.19" height="9.86"/><rect class="cls-2" x="1151.46" y="133.56" width="58.19" height="9.86"/><path class="cls-3" d="M297.42,167.73a6.33,6.33,0,0,1,4.48-2.33c3.19-.3,59.84,0,59.84,0v-3.64s1.67-1.67,3.19,3.19c0,0,34.92-.91,35.84,4.25v38.45c-.92,5.16-35.84,4.25-35.84,4.25-1.52,4.86-3.19,3.19-3.19,3.19v-3.65s-56.65.31-59.84,0a6.34,6.34,0,0,1-4.48-2.32Z"/><path class="cls-2" d="M305.48,173.57s-2.79,2.23-2.79,14.85,2.79,14.86,2.79,14.86l12-.81v-28.1Z"/><path class="cls-2" d="M367,169.15l-10.12,4.42v14.85h14.26C371.71,169.94,367,169.15,367,169.15Z"/><path class="cls-2" d="M356.92,188.42v14.83L367,207.66s4.67-.79,4.14-19.24Z"/><path class="cls-2" d="M344.12,168.24l-1.21,3s12.63,1.73,18.2-3Z"/><polygon class="cls-2" points="340.4 168.24 339.01 171.46 327.11 171.46 328.4 168.24 340.4 168.24"/><path class="cls-2" d="M326.16,168.24l-1.24,3.22s-4.35-.24-4.79-3.22Z"/><path class="cls-2" d="M343.89,208.4l-1.2-3s12.63-1.75,18.19,3Z"/><polygon class="cls-2" points="340.17 208.4 338.78 205.15 326.88 205.15 328.17 208.4 340.17 208.4"/><path class="cls-2" d="M325.94,208.4l-1.25-3.25s-4.34.24-4.78,3.25Z"/><ellipse class="cls-4" cx="398.48" cy="203.38" rx="0.95" ry="2.7"/><ellipse class="cls-4" cx="398.48" cy="173.13" rx="0.95" ry="2.7"/><rect class="cls-5" x="270.46" y="181.29" width="19.51" height="1.07"/><rect class="cls-5" x="277.11" y="186.82" width="12.86" height="1.07"/><rect class="cls-5" x="273.87" y="192.35" width="16.1" height="1.07"/><path class="cls-3" d="M1019,166.65a6.37,6.37,0,0,1,4.48-2.32c3.19-.3,59.84,0,59.84,0v-3.64s1.67-1.67,3.18,3.19c0,0,34.93-.91,35.84,4.25v38.45c-.91,5.16-35.84,4.25-35.84,4.25-1.51,4.86-3.18,3.19-3.18,3.19v-3.65s-56.65.31-59.84,0a6.34,6.34,0,0,1-4.48-2.32Z"/><path class="cls-2" d="M1027.1,172.49s-2.79,2.24-2.79,14.86,2.79,14.86,2.79,14.86l12-.81V173.3Z"/><path class="cls-2" d="M1088.66,168.08l-10.12,4.41v14.86h14.26C1093.33,168.86,1088.66,168.08,1088.66,168.08Z"/><path class="cls-2" d="M1078.54,187.35v14.83l10.12,4.41s4.67-.79,4.14-19.24Z"/><path class="cls-2" d="M1065.74,167.17l-1.21,3s12.63,1.73,18.2-3Z"/><polygon class="cls-2" points="1062.02 167.17 1060.63 170.38 1048.72 170.38 1050.02 167.17 1062.02 167.17"/><path class="cls-2" d="M1047.78,167.17l-1.24,3.21s-4.35-.23-4.79-3.21Z"/><path class="cls-2" d="M1065.51,207.33l-1.2-3s12.63-1.75,18.19,3Z"/><polygon class="cls-2" points="1061.79 207.33 1060.4 204.08 1048.5 204.08 1049.79 207.33 1061.79 207.33"/><path class="cls-2" d="M1047.56,207.33l-1.25-3.25s-4.34.24-4.78,3.25Z"/><ellipse class="cls-4" cx="1120.1" cy="202.3" rx="0.95" ry="2.7"/><ellipse class="cls-4" cx="1120.1" cy="172.06" rx="0.95" ry="2.7"/><rect class="cls-5" x="992.08" y="180.22" width="19.51" height="1.07"/><rect class="cls-5" x="998.73" y="185.75" width="12.86" height="1.07"/><rect class="cls-5" x="995.49" y="191.28" width="16.1" height="1.07"/><path class="cls-3" d="M2929.46,166.65a6.35,6.35,0,0,1,4.48-2.32c3.19-.3,59.83,0,59.83,0v-3.64s1.67-1.67,3.19,3.19c0,0,34.93-.91,35.84,4.25v38.45c-.91,5.16-35.84,4.25-35.84,4.25-1.52,4.86-3.19,3.19-3.19,3.19v-3.65s-56.64.31-59.83,0a6.31,6.31,0,0,1-4.48-2.32Z"/><path class="cls-2" d="M2937.51,172.49s-2.78,2.24-2.78,14.86,2.78,14.86,2.78,14.86l12-.81V173.3Z"/><path class="cls-2" d="M2999.08,168.08,2989,172.49v14.86h14.26C3003.74,168.86,2999.08,168.08,2999.08,168.08Z"/><path class="cls-2" d="M2989,187.35v14.83l10.13,4.41s4.66-.79,4.13-19.24Z"/><path class="cls-2" d="M2976.15,167.17l-1.2,3s12.63,1.73,18.19-3Z"/><polygon class="cls-2" points="2972.43 167.17 2971.04 170.38 2959.14 170.38 2960.43 167.17 2972.43 167.17"/><path class="cls-2" d="M2958.2,167.17l-1.25,3.21s-4.34-.23-4.78-3.21Z"/><path class="cls-2" d="M2975.93,207.33l-1.21-3s12.63-1.75,18.2,3Z"/><polygon class="cls-2" points="2972.21 207.33 2970.82 204.08 2958.92 204.08 2960.21 207.33 2972.21 207.33"/><path class="cls-2" d="M2958,207.33l-1.24-3.25s-4.35.24-4.79,3.25Z"/><ellipse class="cls-4" cx="3030.51" cy="202.3" rx="0.95" ry="2.7"/><ellipse class="cls-4" cx="3030.51" cy="172.06" rx="0.95" ry="2.7"/><rect class="cls-5" x="2902.49" y="180.22" width="19.51" height="1.07"/><rect class="cls-5" x="2909.15" y="185.75" width="12.86" height="1.07"/><rect class="cls-5" x="2905.91" y="191.28" width="16.1" height="1.07"/><path class="cls-3" d="M5742.3,166.65a6.35,6.35,0,0,1,4.48-2.32c3.19-.3,59.83,0,59.83,0v-3.64s1.67-1.67,3.19,3.19c0,0,34.93-.91,35.84,4.25v38.45c-.91,5.16-35.84,4.25-35.84,4.25-1.52,4.86-3.19,3.19-3.19,3.19v-3.65s-56.64.31-59.83,0a6.31,6.31,0,0,1-4.48-2.32Z"/><path class="cls-2" d="M5750.35,172.49s-2.78,2.24-2.78,14.86,2.78,14.86,2.78,14.86l12-.81V173.3Z"/><path class="cls-2" d="M5811.92,168.08l-10.13,4.41v14.86h14.26C5816.58,168.86,5811.92,168.08,5811.92,168.08Z"/><path class="cls-2" d="M5801.79,187.35v14.83l10.13,4.41s4.66-.79,4.13-19.24Z"/><path class="cls-2" d="M5789,167.17l-1.2,3s12.63,1.73,18.19-3Z"/><polygon class="cls-2" points="5785.27 167.17 5783.88 170.38 5771.98 170.38 5773.27 167.17 5785.27 167.17"/><path class="cls-2" d="M5771,167.17l-1.25,3.21s-4.34-.23-4.78-3.21Z"/><path class="cls-2" d="M5788.77,207.33l-1.21-3s12.63-1.75,18.2,3Z"/><polygon class="cls-2" points="5785.05 207.33 5783.66 204.08 5771.76 204.08 5773.05 207.33 5785.05 207.33"/><path class="cls-2" d="M5770.81,207.33l-1.24-3.25s-4.35.24-4.79,3.25Z"/><ellipse class="cls-4" cx="5843.35" cy="202.3" rx="0.95" ry="2.7"/><ellipse class="cls-4" cx="5843.35" cy="172.06" rx="0.95" ry="2.7"/><rect class="cls-5" x="5715.33" y="180.22" width="19.51" height="1.07"/><rect class="cls-5" x="5721.99" y="185.75" width="12.86" height="1.07"/><rect class="cls-5" x="5718.75" y="191.28" width="16.1" height="1.07"/><path class="cls-3" d="M9049.15,166.65a6.37,6.37,0,0,1,4.48-2.32c3.19-.3,59.84,0,59.84,0v-3.64s1.67-1.67,3.18,3.19c0,0,34.93-.91,35.84,4.25v38.45c-.91,5.16-35.84,4.25-35.84,4.25-1.51,4.86-3.18,3.19-3.18,3.19v-3.65s-56.65.31-59.84,0a6.34,6.34,0,0,1-4.48-2.32Z"/><path class="cls-2" d="M9057.21,172.49s-2.79,2.24-2.79,14.86,2.79,14.86,2.79,14.86l12-.81V173.3Z"/><path class="cls-2" d="M9118.77,168.08l-10.12,4.41v14.86h14.26C9123.44,168.86,9118.77,168.08,9118.77,168.08Z"/><path class="cls-2" d="M9108.65,187.35v14.83l10.12,4.41s4.67-.79,4.14-19.24Z"/><path class="cls-2" d="M9095.85,167.17l-1.21,3s12.63,1.73,18.2-3Z"/><polygon class="cls-2" points="9092.13 167.17 9090.74 170.38 9078.83 170.38 9080.13 167.17 9092.13 167.17"/><path class="cls-2" d="M9077.89,167.17l-1.24,3.21s-4.35-.23-4.79-3.21Z"/><path class="cls-2" d="M9095.62,207.33l-1.2-3s12.63-1.75,18.19,3Z"/><polygon class="cls-2" points="9091.9 207.33 9090.51 204.08 9078.61 204.08 9079.9 207.33 9091.9 207.33"/><path class="cls-2" d="M9077.67,207.33l-1.25-3.25s-4.34.24-4.78,3.25Z"/><ellipse class="cls-4" cx="9150.21" cy="202.3" rx="0.95" ry="2.7"/><ellipse class="cls-4" cx="9150.21" cy="172.06" rx="0.95" ry="2.7"/><rect class="cls-5" x="9022.19" y="180.22" width="19.51" height="1.07"/><rect class="cls-5" x="9028.84" y="185.75" width="12.86" height="1.07"/><rect class="cls-5" x="9025.6" y="191.28" width="16.1" height="1.07"/><path class="cls-3" d="M9741.94,166.65a6.32,6.32,0,0,1,4.47-2.32c3.19-.3,59.84,0,59.84,0v-3.64s1.67-1.67,3.19,3.19c0,0,34.93-.91,35.84,4.25v38.45c-.91,5.16-35.84,4.25-35.84,4.25-1.52,4.86-3.19,3.19-3.19,3.19v-3.65s-56.65.31-59.84,0a6.28,6.28,0,0,1-4.47-2.32Z"/><path class="cls-2" d="M9750,172.49s-2.78,2.24-2.78,14.86,2.78,14.86,2.78,14.86l12-.81V173.3Z"/><path class="cls-2" d="M9811.55,168.08l-10.12,4.41v14.86h14.26C9816.22,168.86,9811.55,168.08,9811.55,168.08Z"/><path class="cls-2" d="M9801.43,187.35v14.83l10.12,4.41s4.67-.79,4.14-19.24Z"/><path class="cls-2" d="M9788.63,167.17l-1.2,3s12.63,1.73,18.19-3Z"/><polygon class="cls-2" points="9784.91 167.17 9783.52 170.38 9771.62 170.38 9772.91 167.17 9784.91 167.17"/><path class="cls-2" d="M9770.68,167.17l-1.25,3.21s-4.35-.23-4.79-3.21Z"/><path class="cls-2" d="M9788.4,207.33l-1.2-3s12.63-1.75,18.19,3Z"/><polygon class="cls-2" points="9784.68 207.33 9783.29 204.08 9771.39 204.08 9772.68 207.33 9784.68 207.33"/><path class="cls-2" d="M9770.45,207.33l-1.25-3.25s-4.34.24-4.78,3.25Z"/><ellipse class="cls-4" cx="9842.99" cy="202.3" rx="0.95" ry="2.7"/><ellipse class="cls-4" cx="9842.99" cy="172.06" rx="0.95" ry="2.7"/><rect class="cls-5" x="9714.97" y="180.22" width="19.51" height="1.07"/><rect class="cls-5" x="9721.62" y="185.75" width="12.86" height="1.07"/><rect class="cls-5" x="9718.39" y="191.28" width="16.1" height="1.07"/><path class="cls-3" d="M10781.11,166.65a6.35,6.35,0,0,1,4.48-2.32c3.19-.3,59.83,0,59.83,0v-3.64s1.67-1.67,3.19,3.19c0,0,34.93-.91,35.84,4.25v38.45c-.91,5.16-35.84,4.25-35.84,4.25-1.52,4.86-3.19,3.19-3.19,3.19v-3.65s-56.64.31-59.83,0a6.31,6.31,0,0,1-4.48-2.32Z"/><path class="cls-2" d="M10789.17,172.49s-2.79,2.24-2.79,14.86,2.79,14.86,2.79,14.86l12-.81V173.3Z"/><path class="cls-2" d="M10850.73,168.08l-10.12,4.41v14.86h14.26C10855.39,168.86,10850.73,168.08,10850.73,168.08Z"/><path class="cls-2" d="M10840.61,187.35v14.83l10.12,4.41s4.66-.79,4.14-19.24Z"/><path class="cls-2" d="M10827.8,167.17l-1.2,3s12.63,1.73,18.19-3Z"/><polygon class="cls-2" points="10824.08 167.17 10822.69 170.38 10810.79 170.38 10812.08 167.17 10824.08 167.17"/><path class="cls-2" d="M10809.85,167.17l-1.25,3.21s-4.34-.23-4.78-3.21Z"/><path class="cls-2" d="M10827.58,207.33l-1.2-3s12.63-1.75,18.19,3Z"/><polygon class="cls-2" points="10823.86 207.33 10822.47 204.08 10810.57 204.08 10811.86 207.33 10823.86 207.33"/><path class="cls-2" d="M10809.62,207.33l-1.24-3.25s-4.35.24-4.79,3.25Z"/><ellipse class="cls-4" cx="10882.16" cy="202.3" rx="0.95" ry="2.7"/><ellipse class="cls-4" cx="10882.16" cy="172.06" rx="0.95" ry="2.7"/><rect class="cls-5" x="10754.15" y="180.22" width="19.51" height="1.07"/><rect class="cls-5" x="10760.8" y="185.75" width="12.86" height="1.07"/><rect class="cls-5" x="10757.56" y="191.28" width="16.1" height="1.07"/><path class="cls-3" d="M11763,166.65a6.37,6.37,0,0,1,4.48-2.32c3.19-.3,59.83,0,59.83,0v-3.64s1.68-1.67,3.19,3.19c0,0,34.93-.91,35.84,4.25v38.45c-.91,5.16-35.84,4.25-35.84,4.25-1.51,4.86-3.19,3.19-3.19,3.19v-3.65s-56.64.31-59.83,0a6.34,6.34,0,0,1-4.48-2.32Z"/><path class="cls-2" d="M11771.07,172.49s-2.79,2.24-2.79,14.86,2.79,14.86,2.79,14.86l12-.81V173.3Z"/><path class="cls-2" d="M11832.63,168.08l-10.12,4.41v14.86h14.26C11837.3,168.86,11832.63,168.08,11832.63,168.08Z"/><path class="cls-2" d="M11822.51,187.35v14.83l10.12,4.41s4.67-.79,4.14-19.24Z"/><path class="cls-2" d="M11809.71,167.17l-1.21,3s12.63,1.73,18.2-3Z"/><polygon class="cls-2" points="11805.98 167.17 11804.59 170.38 11792.69 170.38 11793.99 167.17 11805.98 167.17"/><path class="cls-2" d="M11791.75,167.17l-1.24,3.21s-4.35-.23-4.79-3.21Z"/><path class="cls-2" d="M11809.48,207.33l-1.2-3s12.63-1.75,18.19,3Z"/><polygon class="cls-2" points="11805.76 207.33 11804.37 204.08 11792.47 204.08 11793.76 207.33 11805.76 207.33"/><path class="cls-2" d="M11791.53,207.33l-1.25-3.25s-4.35.24-4.78,3.25Z"/><ellipse class="cls-4" cx="11864.06" cy="202.3" rx="0.95" ry="2.7"/><ellipse class="cls-4" cx="11864.06" cy="172.06" rx="0.95" ry="2.7"/><rect class="cls-5" x="11736.05" y="180.22" width="19.51" height="1.07"/><rect class="cls-5" x="11742.7" y="185.75" width="12.86" height="1.07"/><rect class="cls-5" x="11739.46" y="191.28" width="16.1" height="1.07"/><path class="cls-3" d="M12116.36,166.65a6.37,6.37,0,0,1,4.48-2.32c3.19-.3,59.84,0,59.84,0v-3.64s1.67-1.67,3.19,3.19c0,0,34.93-.91,35.84,4.25v38.45c-.91,5.16-35.84,4.25-35.84,4.25-1.52,4.86-3.19,3.19-3.19,3.19v-3.65s-56.65.31-59.84,0a6.34,6.34,0,0,1-4.48-2.32Z"/><path class="cls-2" d="M12124.42,172.49s-2.78,2.24-2.78,14.86,2.78,14.86,2.78,14.86l12-.81V173.3Z"/><path class="cls-2" d="M12186,168.08l-10.12,4.41v14.86h14.26C12190.65,168.86,12186,168.08,12186,168.08Z"/><path class="cls-2" d="M12175.86,187.35v14.83l10.12,4.41s4.67-.79,4.14-19.24Z"/><path class="cls-2" d="M12163.06,167.17l-1.2,3s12.63,1.73,18.19-3Z"/><polygon class="cls-2" points="12159.34 167.17 12157.95 170.38 12146.05 170.38 12147.34 167.17 12159.34 167.17"/><path class="cls-2" d="M12145.1,167.17l-1.24,3.21s-4.35-.23-4.79-3.21Z"/><path class="cls-2" d="M12162.83,207.33l-1.2-3s12.63-1.75,18.19,3Z"/><polygon class="cls-2" points="12159.11 207.33 12157.72 204.08 12145.82 204.08 12147.11 207.33 12159.11 207.33"/><path class="cls-2" d="M12144.88,207.33l-1.25-3.25s-4.34.24-4.78,3.25Z"/><ellipse class="cls-4" cx="12217.42" cy="202.3" rx="0.95" ry="2.7"/><ellipse class="cls-4" cx="12217.42" cy="172.06" rx="0.95" ry="2.7"/><rect class="cls-5" x="12089.4" y="180.22" width="19.51" height="1.07"/><rect class="cls-5" x="12096.05" y="185.75" width="12.86" height="1.07"/><rect class="cls-5" x="12092.81" y="191.28" width="16.1" height="1.07"/><path class="cls-3" d="M12521,166.65a6.35,6.35,0,0,1,4.48-2.32c3.19-.3,59.83,0,59.83,0v-3.64s1.67-1.67,3.19,3.19c0,0,34.93-.91,35.84,4.25v38.45c-.91,5.16-35.84,4.25-35.84,4.25-1.52,4.86-3.19,3.19-3.19,3.19v-3.65s-56.64.31-59.83,0a6.31,6.31,0,0,1-4.48-2.32Z"/><path class="cls-2" d="M12529,172.49s-2.78,2.24-2.78,14.86,2.78,14.86,2.78,14.86l12-.81V173.3Z"/><path class="cls-2" d="M12590.57,168.08l-10.13,4.41v14.86h14.26C12595.23,168.86,12590.57,168.08,12590.57,168.08Z"/><path class="cls-2" d="M12580.44,187.35v14.83l10.13,4.41s4.66-.79,4.13-19.24Z"/><path class="cls-2" d="M12567.64,167.17l-1.2,3s12.63,1.73,18.19-3Z"/><polygon class="cls-2" points="12563.92 167.17 12562.53 170.38 12550.63 170.38 12551.92 167.17 12563.92 167.17"/><path class="cls-2" d="M12549.69,167.17l-1.25,3.21s-4.34-.23-4.78-3.21Z"/><path class="cls-2" d="M12567.42,207.33l-1.21-3s12.63-1.75,18.2,3Z"/><polygon class="cls-2" points="12563.69 207.33 12562.31 204.08 12550.41 204.08 12551.7 207.33 12563.69 207.33"/><path class="cls-2" d="M12549.46,207.33l-1.24-3.25s-4.35.24-4.79,3.25Z"/><ellipse class="cls-4" cx="12622" cy="202.3" rx="0.95" ry="2.7"/><ellipse class="cls-4" cx="12622" cy="172.06" rx="0.95" ry="2.7"/><rect class="cls-5" x="12493.98" y="180.22" width="19.51" height="1.07"/><rect class="cls-5" x="12500.64" y="185.75" width="12.86" height="1.07"/><rect class="cls-5" x="12497.4" y="191.28" width="16.1" height="1.07"/><path class="cls-3" d="M13371.62,166.65a6.37,6.37,0,0,1,4.48-2.32c3.19-.3,59.84,0,59.84,0v-3.64s1.67-1.67,3.19,3.19c0,0,34.92-.91,35.84,4.25v38.45c-.92,5.16-35.84,4.25-35.84,4.25-1.52,4.86-3.19,3.19-3.19,3.19v-3.65s-56.65.31-59.84,0a6.34,6.34,0,0,1-4.48-2.32Z"/><path class="cls-2" d="M13379.68,172.49s-2.79,2.24-2.79,14.86,2.79,14.86,2.79,14.86l12-.81V173.3Z"/><path class="cls-2" d="M13441.24,168.08l-10.12,4.41v14.86h14.26C13445.91,168.86,13441.24,168.08,13441.24,168.08Z"/><path class="cls-2" d="M13431.12,187.35v14.83l10.12,4.41s4.67-.79,4.14-19.24Z"/><path class="cls-2" d="M13418.32,167.17l-1.21,3s12.63,1.73,18.2-3Z"/><polygon class="cls-2" points="13414.6 167.17 13413.21 170.38 13401.31 170.38 13402.6 167.17 13414.6 167.17"/><path class="cls-2" d="M13400.36,167.17l-1.24,3.21s-4.35-.23-4.79-3.21Z"/><path class="cls-2" d="M13418.09,207.33l-1.2-3s12.63-1.75,18.19,3Z"/><polygon class="cls-2" points="13414.37 207.33 13412.98 204.08 13401.08 204.08 13402.37 207.33 13414.37 207.33"/><path class="cls-2" d="M13400.14,207.33l-1.25-3.25s-4.34.24-4.78,3.25Z"/><ellipse class="cls-4" cx="13472.68" cy="202.3" rx="0.95" ry="2.7"/><ellipse class="cls-4" cx="13472.68" cy="172.06" rx="0.95" ry="2.7"/><rect class="cls-5" x="13344.66" y="180.22" width="19.51" height="1.07"/><rect class="cls-5" x="13351.31" y="185.75" width="12.86" height="1.07"/><rect class="cls-5" x="13348.07" y="191.28" width="16.1" height="1.07"/></svg>
