<svg id="Layer_1" data-name="Layer 1" xmlns="http://www.w3.org/2000/svg" width="1500.49" height="431.18" viewBox="0 0 1500.49 431.18"><defs><style>.cls-1{fill:#373d46;}.cls-2{fill:#eaeaea;}</style></defs><title>road</title><rect class="cls-1" y="225.43" width="1500.49" height="155.27"/><rect class="cls-2" y="298.57" width="22.06" height="8.99"/><rect class="cls-2" x="71.72" y="298.57" width="44.13" height="8.99"/><rect class="cls-2" x="165.5" y="298.57" width="44.13" height="8.99"/><rect class="cls-2" x="259.28" y="298.57" width="44.13" height="8.99"/><rect class="cls-2" x="353.06" y="298.57" width="44.13" height="8.99"/><rect class="cls-2" x="446.84" y="298.57" width="44.13" height="8.99"/><rect class="cls-2" x="540.62" y="298.57" width="44.13" height="8.99"/><rect class="cls-2" x="634.4" y="298.57" width="44.13" height="8.99"/><rect class="cls-2" x="728.18" y="298.57" width="44.13" height="8.99"/><rect class="cls-2" x="821.96" y="298.57" width="44.13" height="8.99"/><rect class="cls-2" x="915.74" y="298.57" width="44.13" height="8.99"/><rect class="cls-2" x="1009.52" y="298.57" width="44.13" height="8.99"/><rect class="cls-2" x="1103.31" y="298.57" width="44.13" height="8.99"/><rect class="cls-2" x="1197.09" y="298.57" width="44.13" height="8.99"/><rect class="cls-2" x="1290.87" y="298.57" width="44.13" height="8.99"/><rect class="cls-2" x="1384.65" y="298.57" width="44.13" height="8.99"/><rect class="cls-2" x="1478.43" y="298.57" width="22.06" height="8.99"/><rect class="cls-1" y="390.1" width="1500.49" height="10.56"/><rect class="cls-1" y="205.47" width="1500.49" height="10.56"/></svg>
